<?xml version="1.0" encoding="utf-8"?>
<!-- Generator: Adobe Illustrator 23.0.1, SVG Export Plug-In . SVG Version: 6.00 Build 0)  -->
<svg version="1.1" id="Capa_1" xmlns="http://www.w3.org/2000/svg" xmlns:xlink="http://www.w3.org/1999/xlink" x="0px" y="0px"
	 viewBox="0 0 512 512" style="enable-background:new 0 0 512 512;" xml:space="preserve">
<g>
	<g>
		<path d="M500.3,195.6l-14.1-14.1c0.5-0.8,15.9-13.3,15.9-36.6c0-13.4-5.2-25.9-14.7-35.4l-7.1-7.1l7.1-7.1
			c19.5-19.5,19.6-51.2,0-70.7c-19.5-19.5-51.2-19.6-70.7,0l-7.1,7.1l-7.1-7.1c-19.5-19.5-51.2-19.6-70.7,0l-1.2,1.2l-14.1-14.1
			c-15.6-15.6-40.9-15.6-56.6,0c-15.6,15.6-15.6,40.9,0,56.6l56.6,56.6L124.9,316.4l-56.6-56.6c-15.6-15.6-40.9-15.7-56.6,0
			c-15.6,15.6-15.6,40.9,0,56.6l14.1,14.1l-1.2,1.2c-19.5,19.5-19.6,51.2,0,70.7l7.1,7.1l-7.1,7.1c-19.5,19.5-19.6,51.2,0,70.7
			c19.5,19.5,51.2,19.6,70.7,0l7.1-7.1l7.1,7.1c19.5,19.5,51.2,19.6,70.7,0l1.2-1.2l14.1,14.1c15.6,15.6,40.9,15.6,56.6,0
			c15.6-15.6,15.6-40.9,0-56.6l-56.6-56.6l191.6-191.6l56.6,56.6c15.6,15.6,40.9,15.7,56.6,0C515.9,236.5,515.9,211.2,500.3,195.6z
			 M430.8,38.8c11.7-11.7,30.7-11.8,42.4,0c11.7,11.7,11.7,30.7,0,42.4l-7.1,7.1l-42.4-42.4L430.8,38.8z M345.9,38.8
			c11.7-11.7,30.7-11.7,42.4,0l84.8,84.8c11.7,11.7,11.7,30.7,0,42.4l-1.2,1.2L344.7,40L345.9,38.8z M81.2,473.2
			c-11.7,11.7-30.7,11.8-42.4,0c-11.7-11.7-11.7-30.7,0-42.4l7.1-7.1l42.4,42.4L81.2,473.2z M166.1,473.2
			c-11.7,11.7-30.7,11.7-42.4,0l-84.8-84.8c-11.7-11.7-11.7-30.7,0-42.4l1.2-1.2L167.3,472L166.1,473.2z M238,457.9
			c7.8,7.8,7.8,20.5,0,28.3c-7.8,7.8-20.5,7.8-28.3,0C201.3,477.8,35,311.4,25.9,302.3c-7.8-7.8-7.9-20.4,0-28.3
			c7.8-7.8,20.4-7.8,28.3,0L238,457.9z M181.4,373L139,330.6L330.6,139l42.4,42.4L181.4,373z M486.1,238c-7.8,7.8-20.4,7.8-28.3,0
			L274,54.1c-7.8-7.8-7.8-20.5,0-28.3c7.8-7.8,20.5-7.8,28.3,0c9.2,9.2,175.6,175.6,183.8,183.8C493.9,217.5,494,230.1,486.1,238z"
			/>
	</g>
</g>
</svg>
