<?xml version="1.0" encoding="utf-8"?>
<!-- Generator: Adobe Illustrator 23.0.1, SVG Export Plug-In . SVG Version: 6.00 Build 0)  -->
<svg version="1.1" id="Layer_1" xmlns="http://www.w3.org/2000/svg" xmlns:xlink="http://www.w3.org/1999/xlink" x="0px" y="0px"
	 viewBox="0 0 581 581" style="enable-background:new 0 0 581 581;" xml:space="preserve">
<style type="text/css">
	.st0{fill:#FFFFFF;}
</style>
<path class="st0" d="M329.4,367.8c0,53.4,43.3,96.8,96.8,96.8c53.4,0,96.8-43.3,96.8-96.8c0-53.4-43.3-96.8-96.8-96.8
	C372.7,271,329.4,314.3,329.4,367.8z M426.1,290.3c42.8,0,77.4,34.7,77.4,77.4s-34.7,77.4-77.4,77.4s-77.4-34.7-77.4-77.4
	C348.8,325,383.4,290.4,426.1,290.3z"/>
<path class="st0" d="M370.8,561.3h110.6v19.4H370.8V561.3z"/>
<path class="st0" d="M329.4,522.6h193.5v19.4H329.4V522.6z"/>
<path class="st0" d="M116.5,522.6h19.4v19.4h-19.4V522.6z"/>
<path class="st0" d="M58.4,541.9h19.4v19.4H58.4V541.9z"/>
<path class="st0" d="M117.5,468.1c50.5-88,82.2-185.5,93.1-286.4l90,89.5c1.8,1.8,4.2,2.8,6.8,2.8c0.5,0,1.1,0,1.6-0.1
	c3.1-0.5,5.7-2.4,7.1-5.2c18.2-36.4,11.1-80.4-17.7-109.2l-7.9-7.9h68.1c5.3,0,9.7-4.3,9.7-9.7c0-1-0.2-2.1-0.5-3.1
	c-12.9-38.6-49-64.7-89.7-64.7h-12.6l48.3-48.6c3.8-3.8,3.8-9.9,0-13.7c-0.7-0.7-1.6-1.3-2.5-1.8C274.6-8.2,230.6-1.1,201.8,27.7
	l-9.2,9.2c-3,3-5.8,6.3-8.4,9.7c-2.5-3.4-5.3-6.6-8.3-9.7l-9.2-9.2C137.9-1.1,93.9-8.2,57.5,10c-4.8,2.4-6.7,8.2-4.3,13
	c0.5,0.9,1.1,1.8,1.8,2.5l48.4,48.6H90.6c-40.7,0-76.9,26-89.7,64.7c-1.7,5.1,1,10.5,6.1,12.2c1,0.3,2,0.5,3.1,0.5h68l-7.9,7.9
	c-28.8,28.8-36,72.8-17.7,109.2c1.4,2.8,4,4.7,7.1,5.2c0.5,0.1,1,0.1,1.6,0.1c2.6,0,5-1,6.8-2.8l83.8-83.3
	c-10.4,92.7-45.3,181-101.2,255.7c-13-3.4-26.2-6.1-39.5-8l-6-0.6L3,454.2l5.6,0.6c9.7,1.4,19.3,3.3,28.9,5.6
	c-1.9,2.4-3.9,4.9-5.9,7.3L46.5,480c74.4-88.4,118.7-198.2,126.6-313.4l11.1-11.1l8.3,8.3c-10.2,123.3-52.5,241.7-122.7,343.5
	l15.8,11.1c7.6-10.9,14.9-22.1,21.9-33.6c45.3,21.7,85.2,53,117.1,91.7l15-12.3c-18.8-22.9-40.4-43.4-64.3-61H581v-19.4H146.7
	C137.2,478.1,127.5,473,117.5,468.1z M303.8,247.1L201.5,145.4c26.2-7.8,54.5-0.7,73.9,18.5l9.2,9.2
	C304,192.5,311.3,220.8,303.8,247.1z M343.6,132.2h-80.1c-18.7-8.9-39.7-11.4-59.9-7.2c14.1-19.8,36.9-31.6,61.2-31.6h13.1
	C305.2,93.4,330.4,108.3,343.6,132.2z M206.2,50.7l9.2-9.2c19.3-19.4,47.7-26.7,74-19.1L232.1,80c-18.6,6.9-34.6,19.4-45.7,35.9
	C181.9,92.2,189.3,67.8,206.2,50.7L206.2,50.7z M152.9,41.4l9.2,9.2c4.3,4.4,8,9.3,11.1,14.7c-4.4,10.2-6.9,21.1-7.4,32.2
	c-8.7-7.6-18.7-13.5-29.5-17.5L79,22.3C105.3,14.7,133.6,22.1,152.9,41.4L152.9,41.4z M90.6,93.5h13.1c24.3,0,47.1,11.7,61.2,31.5
	c-20.2-4.2-41.3-1.7-59.9,7.2H24.8C38.1,108.3,63.3,93.4,90.6,93.5L90.6,93.5z M64.7,247.1c-7.6-26.3-0.2-54.6,19.1-73.9l9.2-9.2
	c13.9-13.9,32.8-21.7,52.5-21.6c7.3,0,14.5,1,21.4,3.1L64.7,247.1z"/>
</svg>
