<svg height="511pt" viewBox="0 -4 511.99982 511" width="511pt" xmlns="http://www.w3.org/2000/svg"><path d="m171.566406 448.289062h10.414063v-52.507812c0-8.628906 6.992187-15.621094 15.621093-15.621094 8.625 0 15.617188 6.992188 15.617188 15.621094v52.507812h34.367188c18.949218 0 34.363281 15.417969 34.363281 34.367188 0 8.625-6.992188 15.621094-15.621094 15.621094-8.625 0-15.621094-6.996094-15.621094-15.621094 0-1.722656-1.398437-3.125-3.125-3.125h-76.015625c-1.722656 0-3.125 1.402344-3.125 3.125 0 8.625-6.992187 15.621094-15.621094 15.621094-8.625 0-15.617187-6.996094-15.617187-15.621094 0-18.949219 15.414063-34.367188 34.363281-34.367188zm0 0" fill="#50e0e0"/><path d="m19.253906 487.652344 89.523438-117.683594c10.34375 14.308594 16.296875 32.003906 15.871094 51.117188-.992188 44.753906-37.53125 81.226562-82.289063 82.140624-6.097656.125-12.050781-.398437-17.796875-1.511718-6.425781-1.242188-9.273438-8.855469-5.308594-14.0625zm0 0" fill="#4a5660"/><path d="m108.777344 369.96875-89.523438 117.683594c-3.964844 5.210937-1.117187 12.820312 5.308594 14.0625 4.46875.867187 9.070312 1.371094 13.761719 1.492187l82.667969-108.664062c-2.726563-8.910157-6.878907-17.195313-12.214844-24.574219zm0 0" fill="#3d4851"/><path d="m197.597656 380.160156c-8.625 0-15.621094 6.992188-15.621094 15.621094v41.527344h10.144532c7.109375 0 14.148437-.464844 21.097656-1.324219v-40.203125c0-8.628906-6.992188-15.621094-15.621094-15.621094zm0 0" fill="#00bcb9"/><path d="m333.371094 68.699219c-5.851563-12.621094-13.871094-24.023438-23.585938-33.730469-21.296875-21.292969-50.707031-34.46875-83.207031-34.46875-64.980469 0-117.675781 52.683594-117.675781 117.675781v189.527344h-40.957032c0 60.203125 48.800782 109 109 109h15.175782c61.636718 0 114.707031-36.65625 138.617187-89.347656zm0 0" fill="#3d4851"/><path d="m139.808594 118.175781c0-59.753906 44.542968-109.097656 102.222656-116.664062-5.054688-.664063-10.214844-1.011719-15.453125-1.011719-64.980469 0-117.675781 52.683594-117.675781 117.675781v189.527344h30.90625zm0 0" fill="#333a41"/><path d="m98.851562 307.703125h-30.90625c0 60.203125 48.800782 109.003906 109 109.003906h15.175782c2.808594 0 5.597656-.105469 8.371094-.253906-56.769532-3.785156-101.640626-51.019531-101.640626-108.75zm0 0" fill="#333a41"/><path d="m193.316406 147.367188c3.261719 33.46875 24.378906 53.296874 49.539063 72.601562 38.363281 29.429688 85.238281 54.214844 87.882812 107.386719 8.683594-19.140625 13.515625-40.40625 13.515625-62.792969v-146.386719c0-17.671875-3.894531-34.4375-10.882812-49.476562-14.671875-10.996094-32.894532-17.515625-52.640625-17.515625-51.171875 0-92.351563 45.601562-87.414063 96.183594zm0 0" fill="#e8e8e8"/><path d="m458.003906 117.570312c-32.710937-30.0625-77.175781-48.871093-124.632812-48.871093 6.03125 54.277343-22.273438 70.980469-29.179688 97.066406l35.898438 25.304687 65.261718 10.300782zm0 0" fill="#ff8f71"/><path d="m405.351562 177.011719v24.359375l45.820313 7.226562 56.089844 24.835938c2.363281.824218 4.820312-1 4.734375-3.496094-1.59375-43.449219-22.253906-83.207031-53.992188-112.367188-29.671875 3.5625-52.652344 28.816407-52.652344 59.441407zm0 0" fill="#4a5660"/><path d="m302.691406 176.679688c-.257812 25.441406 21.484375 45.59375 46.894532 44.519531 99.253906-4.1875 143.980468 7.507812 157.675781 12.234375-77.71875-82.070313-203.070313-67.667969-203.070313-67.667969-.914062 3.4375-1.457031 7.039063-1.5 10.914063zm0 0" fill="#f75747"/><path d="m275.304688 124.242188c4.265624 0 7.726562-3.460938 7.726562-7.726563v-14.585937c0-4.265626-3.460938-7.726563-7.726562-7.726563-4.265626 0-7.726563 3.460937-7.726563 7.726563v14.585937c0 4.265625 3.460937 7.726563 7.726563 7.726563zm0 0" fill="#333a41"/><path d="m255.667969 149.355469h18.445312c4.265625 0 7.726563-3.457031 7.726563-7.726563 0-4.265625-3.460938-7.726562-7.726563-7.726562h-18.445312c-4.269531 0-7.726563 3.460937-7.726563 7.726562 0 4.269532 3.457032 7.726563 7.726563 7.726563zm0 0" fill="#ff8997"/><path d="m1.910156 364.574219 94.652344-135.011719c18.757812-26.753906 54.492188-35.367188 83.378906-20.097656 35.683594 18.863281 45.753906 65.492187 20.792969 97.214844-34.339844 43.640624-94.808594 90.027343-191.875 74.289062-7.65625-1.238281-11.402344-10.042969-6.949219-16.394531zm0 0" fill="#4a5660"/><path d="m39.765625 380.96875c-7.65625-1.238281-11.402344-10.042969-6.949219-16.394531l94.652344-135.011719c9.320312-13.300781 22.839844-22.109375 37.628906-25.738281-25.441406-6.253907-52.890625 3.425781-68.535156 25.738281l-94.652344 135.011719c-4.453125 6.351562-.707031 15.15625 6.949219 16.398437 19.015625 3.082032 36.617187 3.769532 52.902344 2.574219-7.113281-.503906-14.445313-1.351563-21.996094-2.578125zm0 0" fill="#3d4851"/></svg>