<?xml version="1.0" encoding="utf-8"?>
<!-- Generator: Adobe Illustrator 23.0.1, SVG Export Plug-In . SVG Version: 6.00 Build 0)  -->
<svg version="1.1" id="Layer_5" xmlns="http://www.w3.org/2000/svg" xmlns:xlink="http://www.w3.org/1999/xlink" x="0px" y="0px"
	 viewBox="0 0 512 512" style="enable-background:new 0 0 512 512;" xml:space="preserve">
<style type="text/css">
	.st0{fill:#FFFFFF;}
</style>
<g>
	<path class="st0" d="M472,455c18.2-4.5,32-23.8,32-47s-13.8-42.6-32-47V104h-16V72h-32V40h-16.2L408,8l-16-0.1L391.8,40H376v32h-32
		v32h-16v69.4c-17.3,4.7-33.6,12.4-48,22.6v-76h32V72h-40V40h-16.2L256,8l-16-0.1L239.8,40H224v32h-40v48h32v153.8l-32-8V200h16v-16
		h-48v-48h-16v48h-16v-16h-16v16H88v-32H72v32H24v16h16v248.2c-9.7,7.3-16,18.8-16,31.8c0,2.7,0.4,5.4,0.9,8H8v16h496v-16h-32V455z
		 M232,443.4c-11.4-5-25.2-4.3-36,2C185.5,432,169.3,424,152,424c-11.8,0-22.8,3.7-32,10.1V266.2l112,28V443.4z M238,279.3l0.9-2.2
		c17.7-53.1,65.7-89.6,121.1-92.8v277.3c-8.9-4.3-18.9-6.3-29.3-5.3C321.6,436.7,302,424,280,424c-11.7,0-22.8,3.7-32,10.2V281.8
		L238,279.3z M392,408v30c-9.3-4.4-16-16.1-16-30c0-17.6,10.8-32,24-32s24,14.4,24,32c0,13.9-6.7,25.6-16,30v-30H392z M376,473.1
		v-26.8c4.7,4.2,10.1,7.3,16,8.7v33h-5.6C383.7,482.4,380.2,477.4,376,473.1z M408,455c9.8-2.4,18.2-9.1,24-18.4
		c5.8,9.3,14.2,16,24,18.4v33h-48V455z M488,408c0,13.9-6.7,25.6-16,30v-30h-16v30c-9.3-4.4-16-16.1-16-30c0-17.6,10.8-32,24-32
		S488,390.4,488,408z M392,56h16v16h-16V56z M360,88h16h48h16v16h-80V88z M344,120h112v241c-9.8,2.4-18.2,9.1-24,18.4
		c-7.3-11.7-18.9-19.3-32-19.3c-9,0-17.3,3.6-24,9.7V168h-8c-8.1,0-16.2,0.6-24,1.9V120z M240,56h16v16h-16V56z M200,88h96v16h-96
		V88z M264,120v89.1c-13,12.2-23.9,26.7-32,43V120H264z M56,200h112v61.8l-64-16v205.6c-1,1.7-2,3.3-2.8,5.1
		c-1.7-0.2-3.4-0.4-5.2-0.4c-7.5-10-19.4-16-32-16c-2.7,0-5.4,0.3-8,0.8V200z M40,480c0-13.2,10.8-24,24-24
		c8.6,0,16.7,4.7,20.9,12.2l2.5,4.4L96,472c2.4,0,4.8,0.5,7.6,1.4l7.8,2.6l2.4-7.8C119,451.3,134.4,440,152,440
		c14.6,0,28,7.9,35,20.7l5,9.1l7.5-7.1c9-8.5,23.9-8.5,32.9,0l7.5,7.1l5-9.1c7.1-12.8,20.5-20.7,35-20.7c17.4,0,32.6,11.1,38,27.6
		l2.2,6.9l7.1-1.6c15.8-3.5,31.3,3,40.4,15H41.6C40.6,485.4,40,482.8,40,480L40,480z"/>
	<path class="st0" d="M136,216h16v16h-16V216z"/>
	<path class="st0" d="M72,216h16v16H72V216z"/>
	<path class="st0" d="M104,216h16v16h-16V216z"/>
	<path class="st0" d="M72,344h16v16H72V344z"/>
	<path class="st0" d="M72,312h16v16H72V312z"/>
	<path class="st0" d="M72,280h16v16H72V280z"/>
	<path class="st0" d="M72,376h16v16H72V376z"/>
	<path class="st0" d="M72,248h16v16H72V248z"/>
	<path class="st0" d="M72,408h16v16H72V408z"/>
	<path class="st0" d="M424,136h16v16h-16V136z"/>
	<path class="st0" d="M392,136h16v16h-16V136z"/>
	<path class="st0" d="M360,136h16v16h-16V136z"/>
	<path class="st0" d="M136,392h16v16h-16V392z"/>
	<path class="st0" d="M136,360h16v16h-16V360z"/>
	<path class="st0" d="M136,328h16v16h-16V328z"/>
	<path class="st0" d="M136,296h16v16h-16V296z"/>
	<path class="st0" d="M168,296h16v16h-16V296z"/>
	<path class="st0" d="M168,328h16v16h-16V328z"/>
	<path class="st0" d="M168,392h16v16h-16V392z"/>
	<path class="st0" d="M168,360h16v16h-16V360z"/>
	<path class="st0" d="M200,392h16v16h-16V392z"/>
	<path class="st0" d="M200,328h16v16h-16V328z"/>
	<path class="st0" d="M200,296h16v16h-16V296z"/>
	<path class="st0" d="M200,360h16v16h-16V360z"/>
	<path class="st0" d="M296,392h16v16h-16V392z"/>
	<path class="st0" d="M264,392h16v16h-16V392z"/>
	<path class="st0" d="M328,392h16v16h-16V392z"/>
	<path class="st0" d="M296,360h16v16h-16V360z"/>
	<path class="st0" d="M264,360h16v16h-16V360z"/>
	<path class="st0" d="M328,360h16v16h-16V360z"/>
	<path class="st0" d="M328,328h16v16h-16V328z"/>
	<path class="st0" d="M264,328h16v16h-16V328z"/>
	<path class="st0" d="M296,328h16v16h-16V328z"/>
	<path class="st0" d="M264,296h16v16h-16V296z"/>
	<path class="st0" d="M328,296h16v16h-16V296z"/>
	<path class="st0" d="M296,296h16v16h-16V296z"/>
	<path class="st0" d="M328,264h16v16h-16V264z"/>
	<path class="st0" d="M296,264h16v16h-16V264z"/>
	<path class="st0" d="M264,264h16v16h-16V264z"/>
	<path class="st0" d="M296,232h16v16h-16V232z"/>
	<path class="st0" d="M328,232h16v16h-16V232z"/>
	<path class="st0" d="M392,168h16v16h-16V168z"/>
	<path class="st0" d="M424,168h16v16h-16V168z"/>
	<path class="st0" d="M424,200h16v16h-16V200z"/>
	<path class="st0" d="M392,200h16v16h-16V200z"/>
	<path class="st0" d="M392,232h16v16h-16V232z"/>
	<path class="st0" d="M424,232h16v16h-16V232z"/>
	<path class="st0" d="M424,264h16v16h-16V264z"/>
	<path class="st0" d="M392,264h16v16h-16V264z"/>
	<path class="st0" d="M392,296h16v16h-16V296z"/>
	<path class="st0" d="M424,296h16v16h-16V296z"/>
	<path class="st0" d="M424,328h16v16h-16V328z"/>
	<path class="st0" d="M392,328h16v16h-16V328z"/>
</g>
</svg>
