<?xml version="1.0" encoding="utf-8"?>
<!-- Generator: Adobe Illustrator 23.0.1, SVG Export Plug-In . SVG Version: 6.00 Build 0)  -->
<svg version="1.1" id="Capa_1" xmlns="http://www.w3.org/2000/svg" xmlns:xlink="http://www.w3.org/1999/xlink" x="0px" y="0px"
	 viewBox="0 0 512 512" style="enable-background:new 0 0 512 512;" xml:space="preserve">
<g>
	<g>
		<path d="M485.6,170.7c-15.8-14.5-32.2-29.4-23.7-94c0.4-2.7-0.8-5.4-3-7.1c-2.2-1.6-5.1-2-7.6-0.9c-1.9,0.8-46.5,21.1-46.5,91.5
			c0,33,18.2,50.2,34.3,65.3c13.2,12.4,24.5,23.1,24.5,40.9c0,27.2-6.8,37.2-7.5,38.2c-2.9,2.8-2.9,7.2-0.3,10.2
			c1.5,1.7,3.6,2.5,5.7,2.5c1.7,0,3.5-0.6,5-1.7c1.9-1.5,45.5-36.7,45.5-87.8C512,194.9,498.6,182.6,485.6,170.7z M449.6,214.5
			c-15.2-14.3-29.6-27.9-29.6-54.3c0-37.7,14.1-58.4,25.1-68.7c-4.4,58.6,13.9,75.4,30.3,90.4c12,11,21.5,19.7,21.5,46
			c0,21-9.1,39.3-18.6,52.6c0.4-4.2,0.6-8.9,0.6-14C478.9,242.1,464,228.1,449.6,214.5z"/>
	</g>
</g>
<g>
	<g>
		<path d="M503.8,336.1H189.9h-33.4H99.2c-4.2,0-7.6,3.4-7.6,7.6s3.4,7.6,7.6,7.6h49.7v77.5H15.2v-77.5h48.6
			c4.2,0,244.2,0,244.5-7.6c0.3-9.4-240.3-7.6-244.5-7.6H7.6c-4.2,0-7.6,3.4-7.6,7.6v92.6c0,4.2,3.4,7.6,7.6,7.6h148.9h33.4h165.5
			c4.2,0,132.9,0.9,132-7.6c-0.9-8.9-127.8-7.6-132-7.6H197.5v-77.5h253.6v77.5h-60.3c-4.2,0-7.6,3.4-7.6,7.6s3.4,7.6,7.6,7.6h112.9
			c4.2,0,7.6-3.4,7.6-7.6v-92.6C511.3,339.5,507.9,336.1,503.8,336.1z M182.3,428.8h-18.2v-77.5h18.2V428.8z M496.2,428.8h-29.8
			v-77.5h29.8V428.8z"/>
	</g>
</g>
</svg>
