<?xml version="1.0" encoding="utf-8"?>
<!-- Generator: Adobe Illustrator 23.0.1, SVG Export Plug-In . SVG Version: 6.00 Build 0)  -->
<svg version="1.1" id="Layer_1" xmlns="http://www.w3.org/2000/svg" xmlns:xlink="http://www.w3.org/1999/xlink" x="0px" y="0px"
	 viewBox="0 0 512 512" style="enable-background:new 0 0 512 512;" xml:space="preserve">
<path d="M449.6,4.7c-1.6-3.9-6-5.7-9.9-4.1C395.1,18.9,359,50.5,335.4,90.4h-260c-10.3,0-16.2,12.1-9.5,20.2
	c164.6,199.6,153.2,187.1,161.7,192.6v87.2c0.3,15.8,3.4,6.8,7.6,7.5c2.8,0.5,7,4.5,7.5-7.5v-80.7c6.4,1.5,13.1,1.6,19.6,0.4v137.6
	c-11.3-4-8.2-4-19.6,0v-27c0-4.2,1.6-48.4-7.6-48.2c-10.1,0.2-7.5,44-7.5,48.2v32.3l-109.7,38.5c-11.3,4-8.5,20.7,3.5,20.7h262.3
	c12,0,14.8-16.8,3.5-20.7l-59.8-20.9c-3.9-1.4-8.2,0.7-9.6,4.6c-1.4,3.9,0.7,8.2,4.6,9.6l35.1,12.3h-210c0,0,105-36.8,105-36.8
	c19.4,6.8,1.1,0.4,41.4,14.5c3.4,1.2,51.8,20,54.2,13c0.6-1.9,3.2-0.1,3.4-0.6c6.7-8-48.7-25.2-52.6-26.6l-21.5-7.5V304.3
	c9.1-5.4,10.9-8.9,34.4-37.7c2.6-3.2,2.2-8-1.1-10.6s-8-2.2-10.6,1.1c-23.9,29.3-21.9,26.8-22.7,27.8c-11.6,13.3-34.4,16.7-49.8-2
	l-88.3-107H271c3.4,19.4,20.4,34.2,40.8,34.2s37.4-14.8,40.8-34.2h13.8l-47.2,57.8c-2.6,3.2-41.3,47.7-31.2,50.9
	c7.4,5.4,40.3-38.1,42.9-41.3l108.2-132.7c6.6-8.1,0.8-20.1-9.5-20.1h-76.4c21.5-32.9,53.1-59.7,92.4-75.9
	C449.4,13,451.2,8.5,449.6,4.7z M271.1,160.7H126.8l-45.5-55.2h246c-4.9,10.1-7.7,18.1-9.1,22.2
	C295.9,124.2,275.3,139.2,271.1,160.7z M336.9,160.7h-50.2C294.4,136.2,329.2,136.2,336.9,160.7z M286.5,175.8h50.6
	C329.9,201.2,293.7,201.2,286.5,175.8z M423.7,105.5l-45.1,55.2h-26.2c-2.3-12-9.8-22.1-20-28c1.3-4.1,4.8-14.2,11.8-27.2H423.7z"/>
</svg>
