<!DOCTYPE svg PUBLIC "-//W3C//DTD SVG 20010904//EN" "http://www.w3.org/TR/2001/REC-SVG-20010904/DTD/svg10.dtd">
<svg version="1.0" xmlns="http://www.w3.org/2000/svg" width="300px" height="178px" viewBox="0 0 3000 1780" preserveAspectRatio="xMidYMid meet">
<g id="layer101" fill="#246061" stroke="none">
 <path d="M2225 1433 c-13 -12 -15 -26 -11 -56 9 -54 12 -57 51 -57 27 0 34 5 39 26 9 33 -1 63 -28 86 -26 22 -31 22 -51 1z"/>
 <path d="M2000 1420 c-23 -17 -23 -19 -9 -56 14 -36 18 -39 54 -39 40 0 40 0 40 39 0 33 -5 42 -31 56 -29 17 -32 17 -54 0z"/>
 <path d="M345 1423 c-65 -13 -65 -13 -65 -44 0 -27 15 -46 100 -126 80 -76 98 -98 90 -112 -5 -9 -37 -45 -72 -81 -87 -90 -112 -125 -138 -196 -37 -103 -15 -240 49 -309 15 -16 34 -39 42 -51 31 -45 160 -153 191 -159 30 -7 36 -4 80 46 54 60 58 76 25 107 -31 29 -39 28 -65 -8 -13 -17 -26 -30 -31 -30 -14 0 -115 98 -130 128 -9 16 -25 42 -36 58 -16 22 -20 44 -20 108 0 80 1 82 45 146 52 75 136 160 157 160 24 0 153 -140 176 -190 24 -54 25 -110 2 -167 -16 -41 -16 -44 2 -75 10 -17 24 -33 30 -35 14 -5 82 85 83 109 0 9 5 20 10 23 14 9 12 96 -3 122 -56 98 -86 140 -147 204 l-70 74 40 40 c22 22 61 56 86 75 64 48 124 112 124 131 0 32 -26 41 -117 38 -48 -1 -137 1 -198 5 -60 3 -135 8 -165 10 -30 2 -64 1 -75 -1z m274 -103 l95 0 -28 -29 c-16 -16 -47 -40 -71 -52 l-42 -22 -47 38 c-50 43 -63 82 -23 71 12 -3 64 -6 116 -6z"/>
 <path d="M1620 1403 c-52 -1 -146 -8 -208 -14 -122 -12 -132 -18 -132 -75 0 -28 11 -41 138 -154 34 -30 62 -59 62 -65 0 -5 -19 -28 -42 -52 -41 -41 -41 -42 -24 -68 29 -44 44 -42 96 14 26 28 51 51 56 51 8 0 33 -17 133 -88 83 -60 122 -96 145 -137 14 -26 26 -56 26 -66 0 -42 47 -98 70 -84 5 3 14 31 20 62 10 48 10 61 -4 90 -9 19 -16 39 -16 46 -1 17 -39 59 -80 89 -94 66 -190 139 -195 148 -4 6 44 59 105 119 88 87 111 114 108 133 -4 32 -61 59 -118 56 -25 -1 -88 -3 -140 -5z m35 -153 c-38 -38 -76 -70 -84 -70 -13 0 -123 94 -129 111 -2 5 27 9 65 10 37 0 86 4 108 8 22 5 56 9 75 10 l35 1 -70 -70z"/>
 <path d="M1050 1368 c-11 -18 -31 -45 -45 -61 -14 -15 -25 -31 -25 -36 0 -5 -28 -38 -62 -74 -79 -82 -121 -134 -130 -156 -4 -11 2 -28 16 -46 19 -24 25 -26 44 -16 12 6 36 33 54 59 29 43 167 187 173 180 59 -72 134 -169 146 -188 9 -14 53 -68 98 -120 80 -92 131 -180 131 -224 0 -12 14 -35 30 -51 58 -55 87 2 54 105 -10 30 -28 69 -39 86 -61 95 -95 142 -121 169 -82 85 -214 301 -214 349 0 20 -44 56 -68 56 -14 0 -29 -12 -42 -32z"/>
 <path d="M2423 1343 c-19 -44 -22 -98 -7 -113 17 -17 61 8 75 41 6 16 15 29 20 29 4 0 11 9 14 21 9 28 -21 59 -57 59 -24 0 -32 -7 -45 -37z"/>
 <path d="M2114 1269 c-2 -4 -36 -7 -75 -7 -89 0 -179 -39 -179 -77 0 -30 36 -37 105 -19 76 20 238 35 249 24 6 -6 18 -10 28 -10 10 0 18 -4 18 -10 0 -5 9 -10 20 -10 30 0 112 -87 142 -151 40 -83 46 -162 17 -230 -25 -60 -58 -101 -98 -121 -14 -7 -47 -26 -74 -42 -42 -25 -58 -29 -147 -31 -55 -2 -100 1 -100 5 0 5 -19 15 -42 22 -64 19 -110 66 -138 144 -19 49 -32 69 -53 81 -16 8 -32 11 -35 8 -11 -11 -4 -133 9 -157 16 -32 111 -128 126 -128 7 0 13 -3 13 -7 0 -5 21 -17 48 -28 39 -17 68 -20 172 -19 127 1 190 9 190 25 0 5 8 9 18 9 51 1 168 121 193 199 6 20 16 41 21 48 5 6 12 45 15 86 6 73 5 75 -41 165 -40 77 -58 99 -114 145 -83 66 -158 97 -230 95 -29 -1 -55 -5 -58 -9z"/>
 <path d="M2610 1177 c-64 -26 -93 -64 -70 -92 11 -13 25 -16 59 -12 25 3 47 10 49 16 2 6 12 11 21 11 24 0 44 45 31 69 -15 29 -33 31 -90 8z"/>
 <path d="M1990 1118 c-36 -11 -73 -24 -82 -29 -10 -5 -23 -9 -29 -9 -15 0 -48 -41 -49 -61 -1 -40 49 -51 90 -19 14 11 31 20 38 20 6 0 12 5 12 10 0 6 9 10 21 10 11 0 29 5 40 10 36 20 102 14 157 -14 57 -29 83 -62 102 -132 15 -54 -1 -119 -34 -136 -12 -6 -24 -15 -27 -21 -10 -14 -86 -12 -104 3 -23 19 -15 64 12 68 12 2 27 10 34 19 11 13 10 18 -11 35 -32 26 -96 17 -129 -20 -53 -58 5 -192 84 -192 17 0 36 -5 43 -12 16 -16 116 8 138 34 10 10 22 18 29 18 20 0 51 52 68 115 13 49 14 68 5 105 -15 59 -82 158 -116 172 -54 21 -68 26 -108 37 -58 15 -109 13 -184 -11z"/>
 <path d="M2641 941 c-54 -20 -72 -44 -50 -66 14 -15 23 -15 84 -2 79 16 99 35 71 66 -22 25 -45 25 -105 2z"/>
 <path d="M650 882 c-39 -58 -48 -91 -49 -177 -1 -101 8 -133 54 -188 47 -56 94 -82 170 -96 87 -16 194 15 253 72 l33 32 25 -32 c34 -44 108 -67 182 -58 54 6 142 37 142 50 0 12 -34 56 -50 65 -10 5 -45 5 -88 -1 -61 -9 -76 -8 -100 6 -25 15 -92 104 -92 124 0 5 -14 14 -31 21 -38 16 -49 6 -56 -51 -21 -165 -236 -189 -314 -36 -21 40 -21 46 -9 138 12 91 12 99 -6 130 -11 18 -24 34 -29 36 -6 1 -21 -14 -35 -35z"/>
 <path d="M1296 845 c-9 -37 4 -135 24 -175 23 -45 48 -71 140 -146 41 -34 96 -83 123 -108 58 -56 88 -60 126 -14 14 17 50 55 79 83 52 51 63 80 40 103 -23 23 -54 12 -103 -38 -51 -52 -82 -62 -106 -34 -7 8 -26 22 -43 31 -103 53 -182 147 -195 233 -12 77 -71 122 -85 65z"/>
 <path d="M2571 744 c-21 -24 -4 -43 59 -64 48 -16 57 -17 82 -4 46 24 34 58 -24 68 -100 16 -103 16 -117 0z"/>
 <path d="M1617 662 c-23 -25 -21 -48 5 -66 32 -23 55 -20 74 9 15 23 15 27 0 50 -20 30 -56 33 -79 7z"/>
 <path d="M485 647 c-24 -19 -13 -64 20 -79 56 -26 103 42 53 76 -28 20 -48 20 -73 3z"/>
 <path d="M2433 559 c-7 -7 -13 -18 -13 -24 0 -16 43 -55 61 -55 8 0 20 -5 27 -12 17 -17 62 6 62 31 0 22 -36 61 -56 61 -6 0 -24 3 -40 6 -17 3 -34 0 -41 -7z"/>
 <path d="M1962 454 c-26 -27 -33 -42 -30 -67 3 -29 6 -32 36 -30 42 1 58 16 66 58 7 35 -9 76 -29 74 -5 0 -25 -16 -43 -35z"/>
 <path d="M2240 465 c-14 -17 -8 -79 11 -101 29 -35 76 -3 64 43 -15 63 -49 89 -75 58z"/>
 </g>
<g id="layer102" fill="#138e4d" stroke="none">
 <path d="M2225 1433 c-13 -12 -15 -26 -11 -56 9 -54 12 -57 51 -57 27 0 34 5 39 26 9 33 -1 63 -28 86 -26 22 -31 22 -51 1z"/>
 <path d="M2000 1420 c-23 -17 -23 -19 -9 -56 14 -36 18 -39 54 -39 40 0 40 0 40 39 0 33 -5 42 -31 56 -29 17 -32 17 -54 0z"/>
 <path d="M345 1423 c-65 -13 -65 -13 -65 -44 0 -27 15 -46 100 -126 80 -76 98 -98 90 -112 -5 -9 -37 -45 -72 -81 -87 -90 -112 -125 -138 -196 -37 -103 -15 -240 49 -309 15 -16 34 -39 42 -51 31 -45 160 -153 191 -159 30 -7 36 -4 80 46 54 60 58 76 25 107 -31 29 -39 28 -65 -8 -13 -17 -26 -30 -31 -30 -14 0 -115 98 -130 128 -9 16 -25 42 -36 58 -16 22 -20 44 -20 109 0 73 3 85 27 117 15 20 29 41 30 48 5 21 129 140 145 140 24 0 152 -140 176 -190 24 -54 25 -110 2 -167 -16 -41 -16 -44 2 -75 10 -17 24 -33 30 -35 14 -5 82 85 83 109 0 9 5 20 10 23 14 9 12 96 -3 122 -56 98 -86 140 -147 204 l-70 74 40 40 c22 22 61 56 86 75 64 48 124 112 124 131 0 32 -26 41 -117 38 -48 -1 -137 1 -198 5 -60 3 -135 8 -165 10 -30 2 -64 1 -75 -1z m274 -103 l95 0 -28 -29 c-16 -16 -48 -40 -72 -52 l-43 -24 -31 30 c-16 16 -30 25 -30 20 0 -5 -7 0 -15 11 -8 10 -15 27 -15 38 0 14 5 17 23 12 12 -3 64 -6 116 -6z"/>
 <path d="M1620 1403 c-129 -3 -319 -23 -326 -35 -3 -5 -7 -25 -9 -46 -4 -40 -4 -39 133 -162 34 -30 62 -59 62 -65 0 -5 -19 -28 -42 -52 -41 -41 -41 -42 -24 -68 29 -44 44 -42 96 14 26 28 51 51 56 51 5 0 31 -16 58 -35 27 -19 53 -32 59 -28 6 3 7 2 4 -4 -3 -5 3 -16 15 -24 101 -69 168 -149 168 -200 0 -42 25 -75 53 -70 5 1 5 -4 1 -10 -4 -7 -1 -10 7 -7 8 2 20 30 28 62 12 52 12 62 -3 92 -9 19 -16 40 -16 47 -1 31 -122 133 -143 120 -5 -3 -7 -2 -4 3 3 5 -21 29 -53 52 -94 69 -96 58 29 180 118 116 130 139 86 168 -26 17 -77 21 -235 17z m35 -153 c-71 -71 -93 -81 -115 -56 -6 8 -19 12 -28 9 -13 -4 -14 -3 -3 5 10 7 4 17 -28 42 -23 19 -41 37 -41 42 0 4 30 8 68 9 37 0 85 4 107 8 22 5 56 9 75 10 l35 1 -70 -70z"/>
 <path d="M1050 1368 c-11 -18 -31 -45 -45 -61 -14 -15 -25 -31 -25 -36 0 -5 -28 -38 -62 -74 -79 -82 -121 -134 -130 -156 -4 -11 2 -28 16 -46 19 -24 25 -26 44 -16 12 6 36 33 54 59 29 43 167 187 173 180 59 -72 134 -169 146 -188 9 -14 53 -68 98 -120 80 -92 131 -180 131 -224 0 -12 14 -35 30 -51 58 -55 87 2 54 105 -10 30 -28 69 -39 86 -61 95 -95 142 -121 169 -82 85 -214 301 -214 349 0 20 -44 56 -68 56 -14 0 -29 -12 -42 -32z"/>
 <path d="M2423 1343 c-19 -44 -22 -98 -7 -113 17 -17 61 8 75 41 6 16 15 29 20 29 4 0 11 9 14 21 9 28 -21 59 -57 59 -24 0 -32 -7 -45 -37z"/>
 <path d="M2114 1269 c-2 -4 -36 -7 -75 -7 -89 0 -179 -39 -179 -77 0 -30 36 -37 105 -19 76 20 238 35 249 24 6 -6 18 -10 28 -10 10 0 18 -4 18 -10 0 -5 9 -10 20 -10 30 0 112 -87 142 -151 40 -83 46 -162 17 -230 -25 -60 -58 -101 -98 -121 -14 -7 -47 -26 -74 -42 -42 -25 -58 -29 -147 -31 -55 -2 -100 1 -100 5 0 5 -19 15 -42 22 -64 19 -110 66 -138 144 -19 49 -32 69 -53 81 -16 8 -32 11 -35 8 -11 -11 -4 -133 9 -157 16 -32 111 -128 126 -128 7 0 13 -3 13 -7 0 -5 21 -17 48 -28 39 -17 68 -20 172 -19 127 1 190 9 190 25 0 5 8 9 18 9 51 1 168 121 193 199 6 20 16 41 21 48 5 6 12 45 15 86 6 73 5 75 -41 165 -40 77 -58 99 -114 145 -83 66 -158 97 -230 95 -29 -1 -55 -5 -58 -9z"/>
 <path d="M2610 1177 c-64 -26 -93 -64 -70 -92 11 -13 25 -16 59 -12 25 3 47 10 49 16 2 6 12 11 21 11 24 0 44 45 31 69 -15 29 -33 31 -90 8z"/>
 <path d="M1990 1118 c-36 -11 -73 -24 -82 -29 -10 -5 -23 -9 -29 -9 -15 0 -48 -41 -49 -61 -1 -40 49 -51 90 -19 14 11 31 20 38 20 6 0 12 5 12 10 0 6 9 10 21 10 11 0 29 5 40 10 36 20 102 14 157 -14 57 -29 83 -62 102 -132 15 -54 -1 -119 -34 -136 -12 -6 -24 -15 -27 -21 -10 -14 -86 -12 -104 3 -23 19 -15 64 12 68 12 2 27 10 34 19 11 13 10 18 -11 35 -32 26 -96 17 -129 -20 -53 -58 5 -192 84 -192 17 0 36 -5 43 -12 16 -16 116 8 138 34 10 10 22 18 29 18 20 0 51 52 68 115 13 49 14 68 5 105 -15 59 -82 158 -116 172 -54 21 -68 26 -108 37 -58 15 -109 13 -184 -11z"/>
 <path d="M2641 941 c-54 -20 -72 -44 -50 -66 14 -15 23 -15 84 -2 79 16 99 35 71 66 -22 25 -45 25 -105 2z"/>
 <path d="M650 882 c-39 -58 -48 -91 -49 -177 -1 -101 8 -133 54 -188 47 -56 94 -82 170 -96 87 -16 194 15 253 72 l33 32 25 -32 c34 -44 108 -67 182 -58 54 6 142 37 142 50 0 12 -34 56 -50 65 -10 5 -45 5 -88 -1 -61 -9 -76 -8 -100 6 -25 15 -92 104 -92 124 0 5 -14 14 -31 21 -38 16 -49 6 -56 -51 -21 -165 -236 -189 -314 -36 -21 40 -21 46 -9 138 12 91 12 99 -6 130 -11 18 -24 34 -29 36 -6 1 -21 -14 -35 -35z"/>
 <path d="M1297 851 c-9 -36 4 -144 23 -180 22 -44 49 -73 123 -133 37 -30 64 -45 75 -42 12 4 13 3 5 -3 -9 -7 4 -25 48 -66 49 -47 65 -57 87 -53 15 2 30 5 34 5 10 1 83 105 80 114 -1 5 2 6 7 3 5 -3 20 4 35 15 42 33 30 89 -19 89 -25 0 -69 -42 -58 -55 5 -4 3 -5 -3 -2 -11 7 -48 -26 -39 -34 2 -3 -10 -6 -26 -7 -21 -2 -41 6 -61 23 -18 15 -37 24 -47 20 -8 -3 -12 -3 -9 1 10 9 -76 74 -97 74 -9 0 -15 6 -12 13 2 6 -9 30 -25 53 -17 24 -32 61 -37 94 -11 72 -70 122 -84 71z"/>
 <path d="M2571 744 c-21 -24 -4 -43 59 -64 48 -16 57 -17 82 -4 46 24 34 58 -24 68 -100 16 -103 16 -117 0z"/>
 <path d="M1617 662 c-23 -25 -21 -48 5 -66 31 -22 54 -20 72 6 21 29 20 38 -1 39 -12 0 -13 2 -5 6 10 4 10 8 1 19 -16 20 -53 17 -72 -4z"/>
 <path d="M485 647 c-24 -19 -13 -64 20 -79 56 -26 103 42 53 76 -28 20 -48 20 -73 3z"/>
 <path d="M2433 559 c-7 -7 -13 -18 -13 -24 0 -16 43 -55 61 -55 8 0 20 -5 27 -12 17 -17 62 6 62 31 0 22 -36 61 -56 61 -6 0 -24 3 -40 6 -17 3 -34 0 -41 -7z"/>
 <path d="M1962 454 c-26 -27 -33 -42 -30 -67 3 -29 6 -32 36 -30 42 1 58 16 66 58 7 35 -9 76 -29 74 -5 0 -25 -16 -43 -35z"/>
 <path d="M2240 465 c-14 -17 -8 -79 11 -101 29 -35 76 -3 64 43 -15 63 -49 89 -75 58z"/>
 </g>
<g id="layer103" fill="#28488b" stroke="none">
 <path d="M2225 1433 c-13 -12 -15 -26 -11 -56 9 -54 12 -57 51 -57 27 0 34 5 39 26 9 33 -1 63 -28 86 -26 22 -31 22 -51 1z"/>
 <path d="M2000 1420 c-23 -17 -23 -19 -9 -56 14 -36 18 -39 54 -39 40 0 40 0 40 39 0 33 -5 42 -31 56 -29 17 -32 17 -54 0z"/>
 <path d="M345 1423 c-65 -13 -65 -13 -65 -44 0 -27 15 -46 100 -126 80 -76 98 -98 90 -112 -5 -9 -37 -45 -72 -81 -87 -90 -112 -125 -138 -196 -37 -103 -15 -240 49 -309 15 -16 34 -39 42 -51 31 -45 160 -153 191 -159 30 -7 36 -4 80 46 54 60 58 76 25 107 -31 29 -39 28 -65 -8 -13 -17 -26 -30 -31 -30 -14 0 -115 98 -130 128 -9 16 -25 42 -36 58 -16 22 -20 44 -20 109 0 73 3 85 27 117 15 20 29 41 30 48 5 21 129 140 145 140 24 0 152 -140 176 -190 24 -54 25 -110 2 -167 -16 -41 -16 -44 2 -75 10 -17 24 -33 30 -35 14 -5 82 85 83 109 0 9 5 20 10 23 14 9 12 96 -3 122 -56 98 -86 140 -147 204 l-70 74 40 40 c22 22 61 56 86 75 64 48 124 112 124 131 0 32 -26 41 -117 38 -48 -1 -137 1 -198 5 -60 3 -135 8 -165 10 -30 2 -64 1 -75 -1z m274 -103 l95 0 -28 -29 c-16 -16 -48 -40 -72 -52 l-43 -24 -31 30 c-16 16 -30 25 -30 20 0 -5 -7 0 -15 11 -8 10 -15 27 -15 38 0 14 5 17 23 12 12 -3 64 -6 116 -6z"/>
 <path d="M1050 1368 c-11 -18 -31 -45 -45 -61 -14 -15 -25 -31 -25 -36 0 -5 -28 -38 -62 -74 -79 -82 -121 -134 -130 -156 -4 -11 2 -28 16 -46 19 -24 25 -26 44 -16 12 6 36 33 54 59 29 43 167 187 173 180 60 -74 134 -170 148 -190 9 -15 46 -61 82 -102 68 -78 80 -97 43 -72 -26 18 -48 21 -48 5 0 -5 4 -7 10 -4 17 11 49 -15 60 -48 l10 -32 -5 34 c-4 30 -3 32 11 20 20 -17 64 -115 64 -143 0 -12 14 -35 30 -51 58 -55 87 2 54 105 -10 30 -28 69 -39 86 -61 95 -95 142 -121 169 -82 85 -214 301 -214 349 0 20 -44 56 -68 56 -14 0 -29 -12 -42 -32z"/>
 <path d="M1415 1390 c-27 -3 22 -4 110 -2 88 3 162 6 164 8 7 6 -221 1 -274 -6z"/>
 <path d="M2423 1343 c-19 -44 -22 -98 -7 -113 17 -17 61 8 75 41 6 16 15 29 20 29 4 0 11 9 14 21 9 28 -21 59 -57 59 -24 0 -32 -7 -45 -37z"/>
 <path d="M1663 1259 c-35 -33 -59 -59 -54 -57 14 5 133 118 124 118 -4 0 -36 -28 -70 -61z"/>
 <path d="M1430 1296 c0 -7 8 -20 18 -27 14 -11 15 -11 5 1 -21 23 -15 29 30 33 l42 4 -47 1 c-35 2 -48 -2 -48 -12z"/>
 <path d="M1780 1233 l-65 -68 68 65 c62 60 72 70 64 70 -1 0 -32 -30 -67 -67z"/>
 <path d="M1290 1277 c0 -2 26 -26 57 -53 31 -27 54 -44 50 -37 -9 14 -107 97 -107 90z"/>
 <path d="M2114 1269 c-2 -4 -36 -7 -75 -7 -89 0 -179 -39 -179 -77 0 -30 36 -37 105 -19 76 20 238 35 249 24 6 -6 18 -10 28 -10 10 0 18 -4 18 -10 0 -5 9 -10 20 -10 30 0 112 -87 142 -151 40 -83 46 -162 17 -230 -25 -60 -58 -101 -98 -121 -14 -7 -47 -26 -74 -42 -42 -25 -58 -29 -147 -31 -55 -2 -100 1 -100 5 0 5 -19 15 -42 22 -64 19 -110 66 -138 144 -19 49 -32 69 -53 81 -16 8 -32 11 -35 8 -11 -11 -4 -133 9 -157 16 -32 111 -128 126 -128 7 0 13 -3 13 -7 0 -5 21 -17 48 -28 39 -17 68 -20 172 -19 127 1 190 9 190 25 0 5 8 9 18 9 51 1 168 121 193 199 6 20 16 41 21 48 5 6 12 45 15 86 6 73 5 75 -41 165 -40 77 -58 99 -114 145 -83 66 -158 97 -230 95 -29 -1 -55 -5 -58 -9z"/>
 <path d="M2610 1177 c-64 -26 -93 -64 -70 -92 11 -13 25 -16 59 -12 25 3 47 10 49 16 2 6 12 11 21 11 24 0 44 45 31 69 -15 29 -33 31 -90 8z"/>
 <path d="M1990 1118 c-36 -11 -73 -24 -82 -29 -10 -5 -23 -9 -29 -9 -15 0 -48 -41 -49 -61 -1 -40 49 -51 90 -19 14 11 31 20 38 20 6 0 12 5 12 10 0 6 9 10 21 10 11 0 29 5 40 10 36 20 102 14 157 -14 57 -29 83 -62 102 -132 15 -54 -1 -119 -34 -136 -12 -6 -24 -15 -27 -21 -10 -14 -86 -12 -104 3 -23 19 -15 64 12 68 12 2 27 10 34 19 11 13 10 18 -11 35 -32 26 -96 17 -129 -20 -53 -58 5 -192 84 -192 17 0 36 -5 43 -12 16 -16 116 8 138 34 10 10 22 18 29 18 20 0 51 52 68 115 13 49 14 68 5 105 -15 59 -82 158 -116 172 -54 21 -68 26 -108 37 -58 15 -109 13 -184 -11z"/>
 <path d="M1471 1113 c13 -21 11 -26 -29 -66 -23 -23 -42 -46 -42 -49 0 -4 20 15 45 41 50 53 53 62 28 82 -15 13 -15 12 -2 -8z"/>
 <path d="M2641 941 c-54 -20 -72 -44 -50 -66 14 -15 23 -15 84 -2 79 16 99 35 71 66 -22 25 -45 25 -105 2z"/>
 <path d="M650 882 c-39 -58 -48 -91 -49 -177 -1 -101 8 -133 54 -188 47 -56 94 -82 170 -96 87 -16 194 15 253 72 l33 32 25 -32 c34 -44 108 -67 182 -58 54 6 142 37 142 50 0 12 -34 56 -50 65 -10 5 -45 5 -88 -1 -61 -9 -76 -8 -100 6 -25 15 -92 104 -92 124 0 5 -14 14 -31 21 -38 16 -49 6 -56 -51 -21 -165 -236 -189 -314 -36 -21 40 -21 46 -9 138 12 91 12 99 -6 130 -11 18 -24 34 -29 36 -6 1 -21 -14 -35 -35z"/>
 <path d="M2571 744 c-21 -24 -4 -43 59 -64 48 -16 57 -17 82 -4 46 24 34 58 -24 68 -100 16 -103 16 -117 0z"/>
 <path d="M1617 662 c-23 -25 -21 -48 5 -66 29 -21 52 -20 69 1 13 15 12 15 -8 3 -43 -27 -96 23 -61 58 16 16 50 15 68 0 12 -11 12 -10 1 5 -17 22 -54 22 -74 -1z"/>
 <path d="M485 647 c-24 -19 -13 -64 20 -79 56 -26 103 42 53 76 -28 20 -48 20 -73 3z"/>
 <path d="M1725 550 c-26 -27 -58 -51 -69 -53 -21 -4 -21 -4 -1 -6 13 0 42 20 75 54 30 30 52 55 49 55 -2 0 -27 -22 -54 -50z"/>
 <path d="M1813 589 c30 -17 20 -50 -30 -97 l-48 -44 53 43 c33 27 52 50 52 64 0 23 -17 45 -34 45 -6 0 -3 -5 7 -11z"/>
 <path d="M2433 559 c-7 -7 -13 -18 -13 -24 0 -16 43 -55 61 -55 8 0 20 -5 27 -12 17 -17 62 6 62 31 0 22 -36 61 -56 61 -6 0 -24 3 -40 6 -17 3 -34 0 -41 -7z"/>
 <path d="M1500 498 c0 -2 28 -30 62 -63 34 -33 55 -50 47 -38 -15 21 -109 109 -109 101z"/>
 <path d="M1962 454 c-26 -27 -33 -42 -30 -67 3 -29 6 -32 36 -30 42 1 58 16 66 58 7 35 -9 76 -29 74 -5 0 -25 -16 -43 -35z"/>
 <path d="M2240 465 c-14 -17 -8 -79 11 -101 29 -35 76 -3 64 43 -15 63 -49 89 -75 58z"/>
 </g>
<g id="layer104" fill="#bc2836" stroke="none">
 <path d="M2225 1433 c-13 -12 -15 -26 -11 -56 9 -54 12 -57 51 -57 27 0 34 5 39 26 9 33 -1 63 -28 86 -26 22 -31 22 -51 1z"/>
 <path d="M2000 1420 c-23 -17 -23 -19 -9 -56 14 -36 18 -39 54 -39 40 0 40 0 40 39 0 33 -5 42 -31 56 -29 17 -32 17 -54 0z"/>
 <path d="M1050 1368 c-11 -18 -31 -45 -45 -61 -14 -15 -25 -31 -25 -36 0 -5 -28 -38 -62 -74 -79 -82 -121 -134 -130 -156 -4 -11 2 -28 16 -46 19 -24 25 -26 44 -16 12 6 36 33 54 59 29 43 167 187 173 180 60 -74 134 -170 148 -190 9 -15 46 -61 82 -102 68 -78 80 -97 43 -72 -26 18 -48 21 -48 5 0 -5 4 -7 10 -4 17 11 49 -15 60 -48 l10 -32 -5 34 c-4 30 -3 32 11 20 20 -17 64 -115 64 -143 0 -12 14 -35 30 -51 58 -55 87 2 54 105 -10 30 -28 69 -39 86 -61 95 -95 142 -121 169 -82 85 -214 301 -214 349 0 20 -44 56 -68 56 -14 0 -29 -12 -42 -32z"/>
 <path d="M1415 1390 c-27 -3 22 -4 110 -2 88 3 162 6 164 8 7 6 -221 1 -274 -6z"/>
 <path d="M2423 1343 c-19 -44 -22 -98 -7 -113 17 -17 61 8 75 41 6 16 15 29 20 29 4 0 11 9 14 21 9 28 -21 59 -57 59 -24 0 -32 -7 -45 -37z"/>
 <path d="M1663 1259 c-35 -33 -59 -59 -54 -57 14 5 133 118 124 118 -4 0 -36 -28 -70 -61z"/>
 <path d="M1430 1296 c0 -7 8 -20 18 -27 14 -11 15 -11 5 1 -21 23 -15 29 30 33 l42 4 -47 1 c-35 2 -48 -2 -48 -12z"/>
 <path d="M1780 1233 l-65 -68 68 65 c62 60 72 70 64 70 -1 0 -32 -30 -67 -67z"/>
 <path d="M1290 1277 c0 -2 26 -26 57 -53 31 -27 54 -44 50 -37 -9 14 -107 97 -107 90z"/>
 <path d="M2114 1269 c-2 -4 -36 -7 -75 -7 -89 0 -179 -39 -179 -77 0 -30 36 -37 105 -19 76 20 238 35 249 24 6 -6 18 -10 28 -10 10 0 18 -4 18 -10 0 -5 9 -10 20 -10 30 0 112 -87 142 -151 40 -83 46 -162 17 -230 -25 -60 -58 -101 -98 -121 -14 -7 -47 -26 -74 -42 -42 -25 -58 -29 -147 -31 -55 -2 -100 1 -100 5 0 5 -19 15 -42 22 -64 19 -110 66 -138 144 -19 49 -32 69 -53 81 -16 8 -32 11 -35 8 -11 -11 -4 -133 9 -157 16 -32 111 -128 126 -128 7 0 13 -3 13 -7 0 -5 21 -17 48 -28 39 -17 68 -20 172 -19 127 1 190 9 190 25 0 5 8 9 18 9 51 1 168 121 193 199 6 20 16 41 21 48 5 6 12 45 15 86 6 73 5 75 -41 165 -40 77 -58 99 -114 145 -83 66 -158 97 -230 95 -29 -1 -55 -5 -58 -9z"/>
 <path d="M2610 1177 c-64 -26 -93 -64 -70 -92 11 -13 25 -16 59 -12 25 3 47 10 49 16 2 6 12 11 21 11 24 0 44 45 31 69 -15 29 -33 31 -90 8z"/>
 <path d="M1990 1118 c-36 -11 -73 -24 -82 -29 -10 -5 -23 -9 -29 -9 -15 0 -48 -41 -49 -61 -1 -40 49 -51 90 -19 14 11 31 20 38 20 6 0 12 5 12 10 0 6 9 10 21 10 11 0 29 5 40 10 36 20 102 14 157 -14 57 -29 83 -62 102 -132 15 -54 -1 -119 -34 -136 -12 -6 -24 -15 -27 -21 -10 -14 -86 -12 -104 3 -23 19 -15 64 12 68 12 2 27 10 34 19 11 13 10 18 -11 35 -32 26 -96 17 -129 -20 -53 -58 5 -192 84 -192 17 0 36 -5 43 -12 16 -16 116 8 138 34 10 10 22 18 29 18 20 0 51 52 68 115 13 49 14 68 5 105 -15 59 -82 158 -116 172 -54 21 -68 26 -108 37 -58 15 -109 13 -184 -11z"/>
 <path d="M1471 1113 c13 -21 11 -26 -29 -66 -23 -23 -42 -46 -42 -49 0 -4 20 15 45 41 50 53 53 62 28 82 -15 13 -15 12 -2 -8z"/>
 <path d="M2641 941 c-54 -20 -72 -44 -50 -66 14 -15 23 -15 84 -2 79 16 99 35 71 66 -22 25 -45 25 -105 2z"/>
 <path d="M650 882 c-39 -58 -48 -91 -49 -177 -1 -101 8 -133 54 -188 47 -56 94 -82 170 -96 87 -16 194 15 253 72 l33 32 25 -32 c34 -44 108 -67 182 -58 54 6 142 37 142 50 0 12 -34 56 -50 65 -10 5 -45 5 -88 -1 -61 -9 -76 -8 -100 6 -25 15 -92 104 -92 124 0 5 -14 14 -31 21 -38 16 -49 6 -56 -51 -21 -165 -236 -189 -314 -36 -21 40 -21 46 -9 138 12 91 12 99 -6 130 -11 18 -24 34 -29 36 -6 1 -21 -14 -35 -35z"/>
 <path d="M870 778 c-3 -31 -1 -53 3 -49 5 5 7 30 5 57 l-3 49 -5 -57z"/>
 <path d="M2571 744 c-21 -24 -4 -43 59 -64 48 -16 57 -17 82 -4 46 24 34 58 -24 68 -100 16 -103 16 -117 0z"/>
 <path d="M1617 662 c-23 -25 -21 -48 5 -66 29 -21 52 -20 69 1 13 15 12 15 -8 3 -43 -27 -96 23 -61 58 16 16 50 15 68 0 12 -11 12 -10 1 5 -17 22 -54 22 -74 -1z"/>
 <path d="M1725 550 c-26 -27 -58 -51 -69 -53 -21 -4 -21 -4 -1 -6 13 0 42 20 75 54 30 30 52 55 49 55 -2 0 -27 -22 -54 -50z"/>
 <path d="M1813 589 c30 -17 20 -50 -30 -97 l-48 -44 53 43 c33 27 52 50 52 64 0 23 -17 45 -34 45 -6 0 -3 -5 7 -11z"/>
 <path d="M2433 559 c-7 -7 -13 -18 -13 -24 0 -16 43 -55 61 -55 8 0 20 -5 27 -12 17 -17 62 6 62 31 0 22 -36 61 -56 61 -6 0 -24 3 -40 6 -17 3 -34 0 -41 -7z"/>
 <path d="M1500 498 c0 -2 28 -30 62 -63 34 -33 55 -50 47 -38 -15 21 -109 109 -109 101z"/>
 <path d="M1962 454 c-26 -27 -33 -42 -30 -67 3 -29 6 -32 36 -30 42 1 58 16 66 58 7 35 -9 76 -29 74 -5 0 -25 -16 -43 -35z"/>
 <path d="M2240 465 c-14 -17 -8 -79 11 -101 29 -35 76 -3 64 43 -15 63 -49 89 -75 58z"/>
 </g>
<g id="layer105" fill="#7ca298" stroke="none">
 <path d="M2225 1433 c-13 -12 -15 -26 -11 -56 9 -54 12 -57 51 -57 27 0 34 5 39 26 9 33 -1 63 -28 86 -26 22 -31 22 -51 1z"/>
 <path d="M2000 1420 c-23 -17 -23 -19 -9 -56 14 -36 18 -39 54 -39 40 0 40 0 40 39 0 33 -5 42 -31 56 -29 17 -32 17 -54 0z"/>
 <path d="M1415 1390 c-27 -3 22 -4 110 -2 88 3 162 6 164 8 7 6 -221 1 -274 -6z"/>
 <path d="M2423 1343 c-19 -44 -22 -98 -7 -113 17 -17 61 8 75 41 6 16 15 29 20 29 4 0 11 9 14 21 9 28 -21 59 -57 59 -24 0 -32 -7 -45 -37z"/>
 <path d="M1663 1259 c-35 -33 -59 -59 -54 -57 14 5 133 118 124 118 -4 0 -36 -28 -70 -61z"/>
 <path d="M1430 1296 c0 -7 8 -20 18 -27 14 -11 15 -11 5 1 -21 23 -15 29 30 33 l42 4 -47 1 c-35 2 -48 -2 -48 -12z"/>
 <path d="M1780 1233 l-65 -68 68 65 c62 60 72 70 64 70 -1 0 -32 -30 -67 -67z"/>
 <path d="M1290 1277 c0 -2 26 -26 57 -53 31 -27 54 -44 50 -37 -9 14 -107 97 -107 90z"/>
 <path d="M2114 1269 c-2 -4 -36 -7 -75 -7 -89 0 -179 -39 -179 -77 0 -30 36 -37 105 -19 76 20 238 35 249 24 6 -6 18 -10 28 -10 10 0 18 -4 18 -10 0 -5 9 -10 20 -10 30 0 112 -87 142 -151 40 -83 46 -162 17 -230 -25 -60 -58 -101 -98 -121 -14 -7 -47 -26 -74 -42 -42 -25 -58 -29 -147 -31 -55 -2 -100 1 -100 5 0 5 -19 15 -42 22 -64 19 -110 66 -138 144 -19 49 -32 69 -53 81 -16 8 -32 11 -35 8 -11 -11 -4 -133 9 -157 16 -32 111 -128 126 -128 7 0 13 -3 13 -7 0 -5 21 -17 48 -28 39 -17 68 -20 172 -19 127 1 190 9 190 25 0 5 8 9 18 9 51 1 168 121 193 199 6 20 16 41 21 48 5 6 12 45 15 86 6 73 5 75 -41 165 -40 77 -58 99 -114 145 -83 66 -158 97 -230 95 -29 -1 -55 -5 -58 -9z"/>
 <path d="M2610 1177 c-64 -26 -93 -64 -70 -92 11 -13 25 -16 59 -12 25 3 47 10 49 16 2 6 12 11 21 11 24 0 44 45 31 69 -15 29 -33 31 -90 8z"/>
 <path d="M1990 1118 c-36 -11 -73 -24 -82 -29 -10 -5 -23 -9 -29 -9 -15 0 -48 -41 -49 -61 -1 -40 49 -51 90 -19 14 11 31 20 38 20 6 0 12 5 12 10 0 6 9 10 21 10 11 0 29 5 40 10 36 20 102 14 157 -14 57 -29 83 -62 102 -132 15 -54 -1 -119 -34 -136 -12 -6 -24 -15 -27 -21 -10 -14 -86 -12 -104 3 -23 19 -15 64 12 68 12 2 27 10 34 19 11 13 10 18 -11 35 -32 26 -96 17 -129 -20 -53 -58 5 -192 84 -192 17 0 36 -5 43 -12 16 -16 116 8 138 34 10 10 22 18 29 18 20 0 51 52 68 115 13 49 14 68 5 105 -15 59 -82 158 -116 172 -54 21 -68 26 -108 37 -58 15 -109 13 -184 -11z"/>
 <path d="M1471 1113 c13 -21 11 -26 -29 -66 -23 -23 -42 -46 -42 -49 0 -4 20 15 45 41 50 53 53 62 28 82 -15 13 -15 12 -2 -8z"/>
 <path d="M2641 941 c-54 -20 -72 -44 -50 -66 14 -15 23 -15 84 -2 79 16 99 35 71 66 -22 25 -45 25 -105 2z"/>
 <path d="M1300 859 c0 -5 4 -7 10 -4 17 11 49 -15 60 -48 l10 -32 -5 33 c-3 23 -1 31 7 26 7 -5 8 -3 4 5 -5 7 -10 10 -13 7 -3 -3 -15 1 -27 9 -24 18 -46 19 -46 4z"/>
 <path d="M870 778 c-3 -31 -1 -53 3 -49 5 5 7 30 5 57 l-3 49 -5 -57z"/>
 <path d="M2571 744 c-21 -24 -4 -43 59 -64 48 -16 57 -17 82 -4 46 24 34 58 -24 68 -100 16 -103 16 -117 0z"/>
 <path d="M1617 662 c-23 -25 -21 -48 5 -66 29 -21 52 -20 69 1 13 15 12 15 -8 3 -43 -27 -96 23 -61 58 16 16 50 15 68 0 12 -11 12 -10 1 5 -17 22 -54 22 -74 -1z"/>
 <path d="M1725 550 c-26 -27 -58 -51 -69 -53 -21 -4 -21 -4 -1 -6 13 0 42 20 75 54 30 30 52 55 49 55 -2 0 -27 -22 -54 -50z"/>
 <path d="M1813 589 c30 -17 20 -50 -30 -97 l-48 -44 53 43 c33 27 52 50 52 64 0 23 -17 45 -34 45 -6 0 -3 -5 7 -11z"/>
 <path d="M2433 559 c-7 -7 -13 -18 -13 -24 0 -16 43 -55 61 -55 8 0 20 -5 27 -12 17 -17 62 6 62 31 0 22 -36 61 -56 61 -6 0 -24 3 -40 6 -17 3 -34 0 -41 -7z"/>
 <path d="M1500 498 c0 -2 28 -30 62 -63 34 -33 55 -50 47 -38 -15 21 -109 109 -109 101z"/>
 <path d="M1962 454 c-26 -27 -33 -42 -30 -67 3 -29 6 -32 36 -30 42 1 58 16 66 58 7 35 -9 76 -29 74 -5 0 -25 -16 -43 -35z"/>
 <path d="M2240 465 c-14 -17 -8 -79 11 -101 29 -35 76 -3 64 43 -15 63 -49 89 -75 58z"/>
 </g>
<g id="layer106" fill="#ecae3c" stroke="none">
 <path d="M2225 1433 c-13 -12 -15 -26 -11 -56 9 -54 12 -57 51 -57 27 0 34 5 39 26 9 33 -1 63 -28 86 -26 22 -31 22 -51 1z"/>
 <path d="M2000 1420 c-23 -17 -23 -19 -9 -56 14 -36 18 -39 54 -39 40 0 40 0 40 39 0 33 -5 42 -31 56 -29 17 -32 17 -54 0z"/>
 <path d="M2423 1343 c-19 -44 -22 -98 -7 -113 17 -17 61 8 75 41 6 16 15 29 20 29 4 0 11 9 14 21 9 28 -21 59 -57 59 -24 0 -32 -7 -45 -37z"/>
 <path d="M2114 1269 c-2 -4 -36 -7 -75 -7 -89 0 -179 -39 -179 -77 0 -30 36 -37 105 -19 76 20 238 35 249 24 6 -6 18 -10 28 -10 10 0 18 -4 18 -10 0 -5 9 -10 20 -10 30 0 112 -87 142 -151 40 -83 46 -162 17 -230 -25 -60 -58 -101 -98 -121 -14 -7 -47 -26 -74 -42 -42 -25 -58 -29 -147 -31 -55 -2 -100 1 -100 5 0 5 -19 15 -42 22 -64 19 -110 66 -138 144 -19 49 -32 69 -53 81 -16 8 -32 11 -35 8 -11 -11 -4 -133 9 -157 16 -32 111 -128 126 -128 7 0 13 -3 13 -7 0 -5 21 -17 48 -28 39 -17 68 -20 172 -19 127 1 190 9 190 25 0 5 8 9 18 9 51 1 168 121 193 199 6 20 16 41 21 48 5 6 12 45 15 86 6 73 5 75 -41 165 -40 77 -58 99 -114 145 -83 66 -158 97 -230 95 -29 -1 -55 -5 -58 -9z"/>
 <path d="M2610 1177 c-64 -26 -93 -64 -70 -92 11 -13 25 -16 59 -12 25 3 47 10 49 16 2 6 12 11 21 11 24 0 44 45 31 69 -15 29 -33 31 -90 8z"/>
 <path d="M1990 1118 c-36 -11 -73 -24 -82 -29 -10 -5 -23 -9 -29 -9 -15 0 -48 -41 -49 -61 -1 -40 49 -51 90 -19 14 11 31 20 38 20 6 0 12 5 12 10 0 6 9 10 21 10 11 0 29 5 40 10 36 20 102 14 157 -14 57 -29 83 -62 102 -132 15 -54 -1 -119 -34 -136 -12 -6 -24 -15 -27 -21 -10 -14 -86 -12 -104 3 -23 19 -15 64 12 68 12 2 27 10 34 19 11 13 10 18 -11 35 -32 26 -96 17 -129 -20 -53 -58 5 -192 84 -192 17 0 36 -5 43 -12 16 -16 116 8 138 34 10 10 22 18 29 18 20 0 51 52 68 115 13 49 14 68 5 105 -15 59 -82 158 -116 172 -54 21 -68 26 -108 37 -58 15 -109 13 -184 -11z"/>
 <path d="M2641 941 c-54 -20 -72 -44 -50 -66 14 -15 23 -15 84 -2 79 16 99 35 71 66 -22 25 -45 25 -105 2z"/>
 <path d="M2571 744 c-21 -24 -4 -43 59 -64 48 -16 57 -17 82 -4 46 24 34 58 -24 68 -100 16 -103 16 -117 0z"/>
 <path d="M2433 559 c-7 -7 -13 -18 -13 -24 0 -16 43 -55 61 -55 8 0 20 -5 27 -12 17 -17 62 6 62 31 0 22 -36 61 -56 61 -6 0 -24 3 -40 6 -17 3 -34 0 -41 -7z"/>
 <path d="M1962 454 c-26 -27 -33 -42 -30 -67 3 -29 6 -32 36 -30 42 1 58 16 66 58 7 35 -9 76 -29 74 -5 0 -25 -16 -43 -35z"/>
 <path d="M2240 465 c-14 -17 -8 -79 11 -101 29 -35 76 -3 64 43 -15 63 -49 89 -75 58z"/>
 </g>

</svg>