<?xml version="1.0" encoding="utf-8"?>
<!-- Generator: Adobe Illustrator 23.0.1, SVG Export Plug-In . SVG Version: 6.00 Build 0)  -->
<svg version="1.1" id="Capa_1" xmlns="http://www.w3.org/2000/svg" xmlns:xlink="http://www.w3.org/1999/xlink" x="0px" y="0px"
	 viewBox="0 0 512 512" style="enable-background:new 0 0 512 512;" xml:space="preserve">
<style type="text/css">
	.st0{fill:#FFFFFF;}
</style>
<g>
	<g>
		<path class="st0" d="M298.7,384h-85.3c-4.7,0-8.5,3.8-8.5,8.5v59.7c0,4.7,3.8,8.5,8.5,8.5h85.3c4.7,0,8.5-3.8,8.5-8.5v-59.7
			C307.2,387.8,303.4,384,298.7,384z M290.1,443.7h-68.3v-42.7h68.3V443.7z"/>
	</g>
</g>
<g>
	<g>
		<rect x="247.5" y="392.5" class="st0" width="17.1" height="59.7"/>
	</g>
</g>
<g>
	<g>
		<path class="st0" d="M341.3,51.2H170.7c-4.7,0-8.5,3.8-8.5,8.5v392.5c0,4.7,3.8,8.5,8.5,8.5h170.7c4.7,0,8.5-3.8,8.5-8.5V59.7
			C349.9,55,346.1,51.2,341.3,51.2z M332.8,443.7H179.2V68.3h153.6V443.7z"/>
	</g>
</g>
<g>
	<g>
		<path class="st0" d="M170.7,85.3h-68.3c-4.7,0-8.5,3.8-8.5,8.5v358.4c0,4.7,3.8,8.5,8.5,8.5h68.3c4.7,0,8.5-3.8,8.5-8.5V93.9
			C179.2,89.2,175.4,85.3,170.7,85.3z M162.1,443.7h-51.2V102.4h51.2V443.7z"/>
	</g>
</g>
<g>
	<g>
		<rect x="76.8" y="85.3" class="st0" width="25.6" height="17.1"/>
	</g>
</g>
<g>
	<g>
		<rect x="145.1" y="51.2" class="st0" width="221.9" height="17.1"/>
	</g>
</g>
<g>
	<g>
		<rect x="196.3" y="341.3" class="st0" width="17.1" height="25.6"/>
	</g>
</g>
<g>
	<g>
		<rect x="230.4" y="341.3" class="st0" width="17.1" height="25.6"/>
	</g>
</g>
<g>
	<g>
		<rect x="264.5" y="341.3" class="st0" width="17.1" height="25.6"/>
	</g>
</g>
<g>
	<g>
		<rect x="298.7" y="341.3" class="st0" width="17.1" height="25.6"/>
	</g>
</g>
<g>
	<g>
		<rect x="196.3" y="298.7" class="st0" width="17.1" height="25.6"/>
	</g>
</g>
<g>
	<g>
		<rect x="230.4" y="298.7" class="st0" width="17.1" height="25.6"/>
	</g>
</g>
<g>
	<g>
		<rect x="264.5" y="298.7" class="st0" width="17.1" height="25.6"/>
	</g>
</g>
<g>
	<g>
		<rect x="298.7" y="298.7" class="st0" width="17.1" height="25.6"/>
	</g>
</g>
<g>
	<g>
		<rect x="196.3" y="256" class="st0" width="17.1" height="25.6"/>
	</g>
</g>
<g>
	<g>
		<rect x="230.4" y="256" class="st0" width="17.1" height="25.6"/>
	</g>
</g>
<g>
	<g>
		<rect x="264.5" y="256" class="st0" width="17.1" height="25.6"/>
	</g>
</g>
<g>
	<g>
		<rect x="298.7" y="256" class="st0" width="17.1" height="25.6"/>
	</g>
</g>
<g>
	<g>
		<rect x="196.3" y="213.3" class="st0" width="17.1" height="25.6"/>
	</g>
</g>
<g>
	<g>
		<rect x="230.4" y="213.3" class="st0" width="17.1" height="25.6"/>
	</g>
</g>
<g>
	<g>
		<rect x="264.5" y="213.3" class="st0" width="17.1" height="25.6"/>
	</g>
</g>
<g>
	<g>
		<rect x="298.7" y="213.3" class="st0" width="17.1" height="25.6"/>
	</g>
</g>
<g>
	<g>
		<rect x="196.3" y="170.7" class="st0" width="17.1" height="25.6"/>
	</g>
</g>
<g>
	<g>
		<rect x="230.4" y="170.7" class="st0" width="17.1" height="25.6"/>
	</g>
</g>
<g>
	<g>
		<rect x="264.5" y="170.7" class="st0" width="17.1" height="25.6"/>
	</g>
</g>
<g>
	<g>
		<rect x="298.7" y="170.7" class="st0" width="17.1" height="25.6"/>
	</g>
</g>
<g>
	<g>
		<rect x="196.3" y="128" class="st0" width="17.1" height="25.6"/>
	</g>
</g>
<g>
	<g>
		<rect x="230.4" y="128" class="st0" width="17.1" height="25.6"/>
	</g>
</g>
<g>
	<g>
		<rect x="264.5" y="128" class="st0" width="17.1" height="25.6"/>
	</g>
</g>
<g>
	<g>
		<rect x="298.7" y="128" class="st0" width="17.1" height="25.6"/>
	</g>
</g>
<g>
	<g>
		<rect x="196.3" y="85.3" class="st0" width="17.1" height="25.6"/>
	</g>
</g>
<g>
	<g>
		<rect x="230.4" y="85.3" class="st0" width="17.1" height="25.6"/>
	</g>
</g>
<g>
	<g>
		<rect x="264.5" y="85.3" class="st0" width="17.1" height="25.6"/>
	</g>
</g>
<g>
	<g>
		<rect x="298.7" y="85.3" class="st0" width="17.1" height="25.6"/>
	</g>
</g>
<g>
	<g>
		<rect x="128" y="384" class="st0" width="17.1" height="25.6"/>
	</g>
</g>
<g>
	<g>
		<rect x="128" y="341.3" class="st0" width="17.1" height="25.6"/>
	</g>
</g>
<g>
	<g>
		<rect x="128" y="298.7" class="st0" width="17.1" height="25.6"/>
	</g>
</g>
<g>
	<g>
		<rect x="128" y="256" class="st0" width="17.1" height="25.6"/>
	</g>
</g>
<g>
	<g>
		<rect x="128" y="213.3" class="st0" width="17.1" height="25.6"/>
	</g>
</g>
<g>
	<g>
		<rect x="128" y="170.7" class="st0" width="17.1" height="25.6"/>
	</g>
</g>
<g>
	<g>
		<rect x="128" y="128" class="st0" width="17.1" height="25.6"/>
	</g>
</g>
<g>
	<g>
		<path class="st0" d="M409.6,85.3h-68.3c-4.7,0-8.5,3.8-8.5,8.5v358.4c0,4.7,3.8,8.5,8.5,8.5h68.3c4.7,0,8.5-3.8,8.5-8.5V93.9
			C418.1,89.2,414.3,85.3,409.6,85.3z M401.1,443.7h-51.2V102.4h51.2V443.7z"/>
	</g>
</g>
<g>
	<g>
		<rect x="409.6" y="85.3" class="st0" width="25.6" height="17.1"/>
	</g>
</g>
<g>
	<g>
		<rect x="366.9" y="384" class="st0" width="17.1" height="25.6"/>
	</g>
</g>
<g>
	<g>
		<rect x="366.9" y="341.3" class="st0" width="17.1" height="25.6"/>
	</g>
</g>
<g>
	<g>
		<rect x="366.9" y="298.7" class="st0" width="17.1" height="25.6"/>
	</g>
</g>
<g>
	<g>
		<rect x="366.9" y="256" class="st0" width="17.1" height="25.6"/>
	</g>
</g>
<g>
	<g>
		<rect x="366.9" y="213.3" class="st0" width="17.1" height="25.6"/>
	</g>
</g>
<g>
	<g>
		<rect x="366.9" y="170.7" class="st0" width="17.1" height="25.6"/>
	</g>
</g>
<g>
	<g>
		<rect x="366.9" y="128" class="st0" width="17.1" height="25.6"/>
	</g>
</g>
<g>
	<g>
		<rect y="443.7" class="st0" width="102.4" height="17.1"/>
	</g>
</g>
<g>
	<g>
		<rect x="409.6" y="443.7" class="st0" width="102.4" height="17.1"/>
	</g>
</g>
<g>
	<g>
		<rect x="34.1" y="273.1" class="st0" width="17.1" height="179.2"/>
	</g>
</g>
<g>
	<g>
		<rect x="34.1" y="273.1" transform="matrix(0.6 -0.8 0.8 0.6 -235.5202 160.4268)" class="st0" width="17.1" height="85.3"/>
	</g>
</g>
<g>
	<g>
		
			<rect x="0" y="307.2" transform="matrix(0.7999 -0.6002 0.6002 0.7999 -180.9668 88.7876)" class="st0" width="85.3" height="17.1"/>
	</g>
</g>
<g>
	<g>
		<rect x="460.8" y="273.1" class="st0" width="17.1" height="179.2"/>
	</g>
</g>
<g>
	<g>
		<rect x="460.8" y="273.1" transform="matrix(0.6 -0.8 0.8 0.6 -64.8566 501.7589)" class="st0" width="17.1" height="85.3"/>
	</g>
</g>
<g>
	<g>
		
			<rect x="426.6" y="307.2" transform="matrix(0.8001 -0.5998 0.5998 0.8001 -95.6122 344.5997)" class="st0" width="85.3" height="17.1"/>
	</g>
</g>
</svg>
