<svg xmlns="http://www.w3.org/2000/svg" width="30" height="30" viewBox="0 0 30 30">
  <g id="Group_25" data-name="Group 25" transform="translate(-1305 -8479)">
    <g id="Ellipse_2" data-name="Ellipse 2" transform="translate(1305 8479)" fill="#f0f1f2" stroke="#292929" stroke-width="1">
      <circle cx="15" cy="15" r="15" stroke="none"/>
      <circle cx="15" cy="15" r="14.5" fill="none"/>
    </g>
    <path id="instagram" d="M13.6,1.6H3.1A1.5,1.5,0,0,0,1.6,3.1V13.6a1.5,1.5,0,0,0,1.5,1.5H13.6a1.5,1.5,0,0,0,1.5-1.5V3.1a1.5,1.5,0,0,0-1.5-1.5ZM8.338,12.492a4.154,4.154,0,0,0,4.154-4.154,3.981,3.981,0,0,0-.077-.738H13.6v5.412a.518.518,0,0,1-.52.517H3.62a.518.518,0,0,1-.52-.517V7.6H4.262a3.907,3.907,0,0,0-.078.738,4.155,4.155,0,0,0,4.154,4.154Zm-2.6-4.155a2.6,2.6,0,1,1,2.6,2.6A2.6,2.6,0,0,1,5.742,8.338ZM13.08,5.35H11.869a.52.52,0,0,1-.519-.519V3.618a.519.519,0,0,1,.518-.518H13.08a.519.519,0,0,1,.52.518V4.831a.52.52,0,0,1-.52.52Z" transform="translate(1311.935 8485.9)" fill="#292929"/>
  </g>
</svg>
