<?xml version="1.0" encoding="utf-8"?>
<!-- Generator: Adobe Illustrator 23.0.1, SVG Export Plug-In . SVG Version: 6.00 Build 0)  -->
<svg version="1.1" id="Layer_1" xmlns="http://www.w3.org/2000/svg" xmlns:xlink="http://www.w3.org/1999/xlink" x="0px" y="0px"
	 viewBox="0 0 30 30" style="enable-background:new 0 0 30 30;" xml:space="preserve">
<style type="text/css">
	.st0{fill:none;stroke:#204A9A;}
	.st1{fill:#204A9A;}
</style>
<g id="Group_25" transform="translate(-1305 -8479)">
	<g id="Ellipse_2" transform="translate(1305 8479)">
		<circle class="st0" cx="15" cy="15" r="14.5"/>
	</g>
	<path id="instagram" class="st1" d="M1325.5,8487.5H1315c-0.8,0-1.5,0.7-1.5,1.5v10.5c0,0.8,0.7,1.5,1.5,1.5h10.5
		c0.8,0,1.5-0.7,1.5-1.5V8489C1327,8488.2,1326.4,8487.5,1325.5,8487.5z M1320.3,8498.4c2.3,0,4.2-1.9,4.2-4.2l0,0
		c0-0.2,0-0.5-0.1-0.7h1.2v5.4c0,0.3-0.2,0.5-0.5,0.5c0,0,0,0,0,0h-9.5c-0.3,0-0.5-0.2-0.5-0.5c0,0,0,0,0,0v-5.4h1.2
		c0,0.2-0.1,0.5-0.1,0.7C1316.1,8496.5,1318,8498.4,1320.3,8498.4z M1317.7,8494.2c0-1.4,1.2-2.6,2.6-2.6s2.6,1.2,2.6,2.6
		s-1.2,2.6-2.6,2.6C1318.8,8496.8,1317.7,8495.7,1317.7,8494.2L1317.7,8494.2z M1325,8491.3h-1.2c-0.3,0-0.5-0.2-0.5-0.5v-1.2
		c0-0.3,0.2-0.5,0.5-0.5h1.2c0.3,0,0.5,0.2,0.5,0.5c0,0,0,0,0,0v1.2C1325.5,8491,1325.3,8491.3,1325,8491.3L1325,8491.3L1325,8491.3
		z"/>
</g>
</svg>
