<?xml version="1.0" encoding="utf-8"?>
<!-- Generator: Adobe Illustrator 23.0.1, SVG Export Plug-In . SVG Version: 6.00 Build 0)  -->
<svg version="1.1" id="Capa_1" xmlns="http://www.w3.org/2000/svg" xmlns:xlink="http://www.w3.org/1999/xlink" x="0px" y="0px"
	 viewBox="0 0 474.2 474.2" style="enable-background:new 0 0 474.2 474.2;" xml:space="preserve">
<style type="text/css">
	.st0{fill:#FFFFFF;}
</style>
<g>
	<g>
		<path class="st0" d="M470.2,419.1c-0.1,0-0.1-0.1-0.2-0.1l-9.7-7.7c-12-11.7-30.9-12.6-44-2.1l-6.5,5.2
			c-4.9,3.9-11.5,4.9-17.2,2.5c-15.6-38.5-44.1-70.5-80.5-90.5l71.4-71.4l52.5,52.5c3.1,3.1,8.2,3.1,11.3,0
			c32.7-32.8,34.4-85.3,3.9-120.1l11.5-11.5c3.1-3.2,3-8.2-0.2-11.3c-3.1-3-8-3-11.1,0l-11.8,11.8c-35-27.7-85.2-24.8-116.8,6.7
			c-3.1,3.1-3.1,8.2,0,11.3l49.4,49.4l-72.8,72.8c-0.8,0.8-1.4,1.8-1.8,2.8c-43.1-18.3-92-17.5-134.4,2.3c17-43.1-4.1-91.9-47.3-109
			c-43.1-17-91.9,4.1-109,47.3c-17,43.1,4.1,91.9,47.3,109c9.8,3.9,20.3,5.9,30.9,5.9c4.4,0,8.9-0.4,13.3-1.1
			c-10.2,13.3-18.6,28-25,43.5c-1.8-0.7-3.6-1.6-5.1-2.8l-8.4-6.7c-12.1-9.8-29.5-9.8-41.6,0L4,419c-3.5,2.8-4,7.8-1.3,11.2
			s7.8,4,11.2,1.3l14.2-11.4c6.3-5.1,15.3-5.1,21.6,0l8.4,6.7c12.1,9.7,29.3,9.8,41.4,0.1c0.1-0.1,0.1-0.1,0.2-0.1l2.3-1.8l6.1-4.9
			c1.4-1.1,3.1-2.1,4.8-2.7c5.7-2.2,12.1-1.1,16.8,2.7l5.5,4.4l2.9,2.3c3,2.4,6.3,4.3,9.9,5.5c8.9,3.1,18.6,2.3,26.8-2.3
			c1.7-0.9,3.3-2,4.8-3.2l2.3-1.8l6.1-4.9c1.4-1.1,3.1-2.1,4.8-2.7c5.7-2.2,12.1-1.1,16.8,2.7l5.5,4.4l2.9,2.3
			c3,2.4,6.3,4.3,9.9,5.5c8.9,3.1,18.6,2.3,26.8-2.3c1.7-0.9,3.3-2,4.8-3.2l2.3-1.8l6.1-4.9c1.4-1.1,3.1-2.1,4.8-2.7
			c5.7-2.2,12.1-1.1,16.8,2.7l5.5,4.4l2.9,2.3c4.4,3.6,9.7,5.9,15.3,6.9c1.8,0.3,3.6,0.5,5.5,0.5c5.6,0,11.1-1.4,16-4.1
			c1.7-0.9,3.3-2,4.8-3.2l2.3-1.8l6.1-4.9c1.4-1.1,3.1-2.1,4.8-2.7c5.7-2.2,12.1-1.1,16.8,2.7l5.7,4.6l2.7,2.2c1.3,1,2.7,2,4.2,2.8
			c11.8,6.9,26.7,5.8,37.4-2.8l6.5-5.2c6.9-5.5,16.8-5,23,1.3l10.7,8.6c3.4,2.8,8.5,2.3,11.3-1.1S473.6,421.9,470.2,419.1z
			 M449.9,214.1c11.9,24.9,8.5,54.4-8.6,76l-17-17C438.7,256.6,447.7,236,449.9,214.1z M413,261.9l-18.2-18.2l39.6-39.6
			C434.3,225.2,426.7,245.7,413,261.9z M340.1,189c21.6-17.2,51.1-20.5,76-8.6c-21.8,2.3-42.5,11.2-59.1,25.6L340.1,189z
			 M368.4,217.2c14.5-12.2,32.4-19.6,51.3-21.1l-36.2,36.2L368.4,217.2z M151.9,302.8h-24.7c2.5-7.8,2.5-16.2,0-24h24.7
			C153.3,286.7,153.3,294.8,151.9,302.8z M146.9,318.8c-3.3,7.5-8,14.3-13.8,20.1c-1.4,1.4-2.9,2.7-4.4,4c-0.9,0.7-1.8,1.4-2.7,2.1
			c-4,3-8.4,5.6-13,7.7v-28.2c1-0.9,2.1-1.6,3.1-2.6s1.7-2.1,2.6-3.1H146.9z M113,228.8c15.1,6.8,27.2,18.8,33.9,33.9h-28.2
			c-0.9-1-1.6-2.2-2.6-3.1s-2.1-1.7-3.1-2.6C113,257.1,113,228.8,113,228.8z M73,223.9c7.9-1.5,16.1-1.5,24,0v24.8
			c-3.9-1.2-7.9-1.8-12-1.9c-4.1,0.1-8.1,0.7-12,1.9V223.9z M37,242.7c5.8-5.8,12.6-10.5,20.1-13.8v28.3c-1,0.9-2.1,1.6-3.1,2.6
			s-1.7,2.1-2.6,3.1H23.2C26.5,255.3,31.2,248.5,37,242.7z M18.2,278.8h24.7c-2.5,7.8-2.5,16.2,0,24H18.2
			C16.8,294.8,16.8,286.7,18.2,278.8z M57,352.7c-15.1-6.7-27.2-18.8-33.9-33.9h28.2c0.9,1,1.6,2.1,2.6,3.1c1,1,2.1,1.7,3.1,2.6
			V352.7z M97,357.6c-7.9,1.4-16.1,1.4-24,0v-24.7c3.9,1.2,7.9,1.8,12,1.9c4.1-0.1,8.1-0.7,12-1.9V357.6z M65.2,310.6
			c-10.9-10.9-10.9-28.7,0-39.6c0,0,0,0,0,0c10.9-10.9,28.7-10.9,39.6,0s10.9,28.7,0,39.6C93.8,321.1,76.3,321.1,65.2,310.6z
			 M366.1,401.1c-1.9-0.4-3.8-0.7-5.7-0.8c-0.4,0-0.7-0.1-1.1-0.1c-2.2,0-4.5,0.2-6.7,0.6c-0.6,0.1-1.1,0.3-1.7,0.4
			c-1.7,0.4-3.4,1-5,1.7c-0.6,0.3-1.2,0.5-1.8,0.8c-2.1,1-4,2.2-5.8,3.6l-0.2,0.1l-4.9,3.9l-3.5,2.8c-1.1,0.9-2.4,1.6-3.7,2.2
			c-3.8,1.8-8.1,2-12.1,0.8c-2.1-0.6-4-1.7-5.7-3L304,411l-4.2-3.4c-12.1-9.8-29.5-9.8-41.6,0l-4.9,3.9l-3.5,2.8
			c-1.1,0.9-2.4,1.6-3.7,2.2c-3.8,1.8-8.1,2-12.1,0.8c-2.1-0.6-4-1.7-5.7-3l-4.2-3.4l-4.2-3.4c-12.1-9.8-29.5-9.8-41.6,0l-4.9,3.9
			l-3.5,2.8c-1.1,0.9-2.4,1.6-3.7,2.2c-3.8,1.8-8.1,2-12.1,0.8c-2.1-0.6-4-1.7-5.7-3l-4.2-3.4l-4.2-3.4c-12.1-9.8-29.5-9.8-41.6,0
			l-4.9,3.9c10.5-21.1,25.3-39.7,43.5-54.7c0.7-0.6,1.5-1.2,2.2-1.8c26.7-21.3,59.9-32.9,94-32.9c55.6,0.6,106.6,30.8,134,79.1
			C366.8,401.2,366.4,401.2,366.1,401.1z"/>
	</g>
</g>
<g>
	<g>
		<path class="st0" d="M185,82.1c-17.7,0-32,14.4-31.9,32.1c0,5.6,1.5,11.1,4.3,15.9c4.2,7.4,11.2,12.7,19.4,14.9
			c2.7,0.7,5.5,1.1,8.3,1.1c17.7,0,32-14.4,31.9-32.1S202.7,82.1,185,82.1z M193.1,128c-7.7,4.4-17.4,1.8-21.9-5.9c0,0,0,0,0,0
			c-4.4-7.6-1.9-17.3,5.7-21.8c0.1,0,0.1-0.1,0.2-0.1c7.7-4.4,17.4-1.8,21.9,5.9C203.3,113.8,200.7,123.5,193.1,128z"/>
	</g>
</g>
<g>
	<g>
		<path class="st0" d="M289,74.1h-24c-4.4,0-8,3.6-8,8v24h-16c-4.4,0-8,3.6-8,8s3.6,8,8,8h24c4.4,0,8-3.6,8-8v-24h16
			c4.4,0,8-3.6,8-8S293.5,74.1,289,74.1z"/>
	</g>
</g>
<g>
	<g>
		<path class="st0" d="M229,37.9l-20.8-12l8-13.9c2.2-3.8,1-8.7-2.9-10.9s-8.7-1-10.9,2.9c0,0,0,0.1-0.1,0.1l-12,20.8
			c-2.2,3.8-0.9,8.7,2.9,10.9l20.8,12l-8,13.9c-2.2,3.8-1,8.7,2.9,10.9s8.7,1,10.9-2.9c0,0,0-0.1,0.1-0.1l12-20.8
			C234.2,45,232.9,40.1,229,37.9z"/>
	</g>
</g>
<g>
	<g>
		<path class="st0" d="M164,61.7C164,61.7,164,61.6,164,61.7L152,40.8c-2.2-3.8-7.1-5.1-10.9-2.9c0,0,0,0,0,0l-20.8,12l-8-13.9
			c-2.2-3.8-7.1-5.2-10.9-3c-3.8,2.2-5.2,7.1-3,10.9c0,0,0,0.1,0.1,0.1l12,20.8c2.2,3.8,7.1,5.1,10.9,2.9l20.8-12l8,13.9
			c2.2,3.8,7.1,5.2,10.9,3C164.9,70.4,166.2,65.5,164,61.7z"/>
	</g>
</g>
<g>
	<g>
		<path class="st0" d="M129,106.1h-24c-4.4,0-8,3.6-8,8v24H81c-4.4,0-8,3.6-8,8s3.6,8,8,8h24c4.4,0,8-3.6,8-8v-24h16
			c4.4,0,8-3.6,8-8S133.5,106.1,129,106.1z"/>
	</g>
</g>
<g>
	<g>
		<path class="st0" d="M176.8,192.4l-20.8-12l8-13.9c2.2-3.8,0.8-8.7-3-10.9c-3.8-2.2-8.6-0.9-10.9,2.9l-12,20.8
			c-2.2,3.8-0.9,8.7,2.9,10.9l20.8,12l-8,13.9c-2.2,3.8-0.9,8.7,2.9,10.9c0,0,0,0,0,0c3.8,2.2,8.7,0.9,10.9-2.9c0,0,0,0,0,0l12-20.8
			C181.9,199.5,180.6,194.7,176.8,192.4z"/>
	</g>
</g>
<g>
	<g>
		<path class="st0" d="M271.7,184.3C271.7,184.3,271.7,184.2,271.7,184.3l-12.1-20.9c-1.1-1.8-2.8-3.2-4.9-3.7
			c-2.1-0.5-4.2-0.3-6.1,0.8l-20.8,12l-8-13.9c-2.2-3.8-7.1-5.2-10.9-3s-5.2,7.1-3,10.9c0,0,0,0.1,0.1,0.1l12,20.8
			c2.2,3.8,7.1,5.1,10.9,2.9l20.8-12l8,13.9c2.2,3.8,7.1,5.2,10.9,3C272.6,193,273.9,188.1,271.7,184.3z"/>
	</g>
</g>
<g>
	<g>
		<path class="st0" d="M470.4,459c-0.1,0-0.1-0.1-0.2-0.1l-9.8-7.7c-12-11.7-30.9-12.6-44-2.1l-6.5,5.2c-6.3,5.1-15.3,5.1-21.6,0
			l-8.4-6.7c-12.1-9.8-29.5-9.8-41.6,0l-8.4,6.7c-6.3,5.1-15.3,5.1-21.6,0l-8.4-6.7c-12.1-9.8-29.5-9.8-41.6,0l-8.4,6.7
			c-6.3,5.1-15.3,5.1-21.6,0l-8.4-6.7c-12.1-9.8-29.5-9.8-41.6,0l-8.4,6.7c-6.3,5.1-15.3,5.1-21.6,0l-8.4-6.7
			c-12.1-9.8-29.5-9.8-41.6,0l-8.4,6.7c-6.3,5.1-15.3,5.1-21.6,0l-8.4-6.7c-12.1-9.8-29.5-9.8-41.6,0L3.9,459
			c-3.5,2.8-4,7.8-1.3,11.2s7.8,4,11.2,1.3l14.4-11.4c6.3-5.1,15.3-5.1,21.6,0l8.4,6.7c12.1,9.8,29.5,9.8,41.6,0l8.4-6.7
			c6.3-5.1,15.3-5.1,21.6,0l8.4,6.7c12.1,9.8,29.5,9.8,41.6,0l8.4-6.7c6.3-5.1,15.3-5.1,21.6,0l8.4,6.7c12.1,9.8,29.5,9.8,41.6,0
			l8.4-6.7c6.3-5.1,15.3-5.1,21.6,0l8.4,6.7c12.1,9.8,29.5,9.8,41.6,0l8.4-6.7c6.3-5.1,15.3-5.1,21.6,0l8.4,6.7
			c12.1,9.8,29.5,9.8,41.6,0l6.5-5.2c6.9-5.5,16.8-5,23,1.3l10.7,8.6c3.4,2.8,8.5,2.3,11.3-1.1S473.8,461.8,470.4,459z"/>
	</g>
</g>
</svg>
