<svg xmlns="http://www.w3.org/2000/svg" width="30" height="30" viewBox="0 0 30 30">
  <g id="Group_27" data-name="Group 27" transform="translate(-1403.333 -8542)">
    <g id="Ellipse_4" data-name="Ellipse 4" transform="translate(1403.333 8542)" fill="#f0f1f2" stroke="#292929" stroke-width="1">
      <circle cx="15" cy="15" r="15" stroke="none"/>
      <circle cx="15" cy="15" r="14.5" fill="none"/>
    </g>
    <path id="linkedin" d="M10674-1879.833v-10.954h3.369v10.954Zm11.8,0v-5.781c0-1.342-.512-2.368-1.686-2.368a1.765,1.765,0,0,0-1.578,1.323,2.3,2.3,0,0,0-.108.812v6.015h-3.368v-7.208c0-1.3-.045-2.389-.088-3.33H10682l.149,1.453h.063a3.749,3.749,0,0,1,3.221-1.686c2.134,0,3.735,1.429,3.735,4.5v6.271Zm-11.8-13.437a1.659,1.659,0,0,1,1.685-1.729,1.633,1.633,0,0,1,1.685,1.685,1.6,1.6,0,0,1-1.686,1.665A1.6,1.6,0,0,1,10674-1893.271Z" transform="translate(-9262.625 10443.319)" fill="#292929"/>
  </g>
</svg>
