<?xml version="1.0" encoding="utf-8"?>
<!-- Generator: Adobe Illustrator 23.0.1, SVG Export Plug-In . SVG Version: 6.00 Build 0)  -->
<svg version="1.1" id="Layer_1" xmlns="http://www.w3.org/2000/svg" xmlns:xlink="http://www.w3.org/1999/xlink" x="0px" y="0px"
	 viewBox="0 0 30 30" style="enable-background:new 0 0 30 30;" xml:space="preserve">
<style type="text/css">
	.st0{fill:none;stroke:#204A9A;}
	.st1{fill:#204A9A;}
</style>
<g id="Group_27" transform="translate(-1403.333 -8542)">
	<g id="Ellipse_4" transform="translate(1403.333 8542)">
		<circle class="st0" cx="15" cy="15" r="14.5"/>
	</g>
	<path id="linkedin" class="st1" d="M1411.4,8563.5v-11h3.4v11H1411.4z M1423.2,8563.5v-5.8c0-1.3-0.5-2.4-1.7-2.4
		c-0.8,0.1-1.4,0.6-1.6,1.3c-0.1,0.3-0.1,0.5-0.1,0.8v6h-3.4v-7.2c0-1.3,0-2.4-0.1-3.3h3l0.1,1.5h0.1c0.7-1.1,1.9-1.7,3.2-1.7
		c2.1,0,3.7,1.4,3.7,4.5v6.3L1423.2,8563.5z M1411.4,8550c0-0.9,0.7-1.7,1.6-1.7c0,0,0.1,0,0.1,0c0.9,0,1.7,0.7,1.7,1.6
		c0,0,0,0.1,0,0.1c0,0.9-0.6,1.6-1.5,1.7c-0.1,0-0.1,0-0.2,0c-0.9,0-1.6-0.6-1.7-1.5C1411.4,8550.1,1411.4,8550.1,1411.4,8550
		L1411.4,8550z"/>
</g>
</svg>
