<?xml version="1.0" encoding="utf-8"?>
<!-- Generator: Adobe Illustrator 23.0.1, SVG Export Plug-In . SVG Version: 6.00 Build 0)  -->
<svg version="1.1" id="Layer_1" xmlns="http://www.w3.org/2000/svg" xmlns:xlink="http://www.w3.org/1999/xlink" x="0px" y="0px"
	 viewBox="0 0 512 512" style="enable-background:new 0 0 512 512;" xml:space="preserve">
<style type="text/css">
	.st0{fill:#FFFFFF;}
</style>
<g>
	<g>
		<path class="st0" d="M157.9,185.9c-3.2-2.6-7.9-2.1-10.5,1.1c-3,3.7-7,5.8-11.3,5.8s-8.3-2.1-11.3-5.8c-2.6-3.2-7.3-3.7-10.5-1.1
			c-3.2,2.6-3.7,7.3-1.1,10.5c5.8,7.2,14.2,11.3,23,11.3s17.1-4.1,23-11.3C161.6,193.2,161.1,188.5,157.9,185.9z"/>
	</g>
</g>
<g>
	<g>
		<path class="st0" d="M101.8,141.4c-4.1,0-7.5,3.4-7.5,7.5v8.6c0,4.1,3.4,7.5,7.5,7.5s7.5-3.4,7.5-7.5v-8.6
			C109.3,144.7,105.9,141.4,101.8,141.4z"/>
	</g>
</g>
<g>
	<g>
		<path class="st0" d="M170.3,141.4c-4.1,0-7.5,3.4-7.5,7.5v8.6c0,4.1,3.4,7.5,7.5,7.5c4.1,0,7.5-3.4,7.5-7.5v-8.6
			C177.8,144.7,174.5,141.4,170.3,141.4z"/>
	</g>
</g>
<g>
	<g>
		<path class="st0" d="M406.4,228.8c-3.2-2.6-7.9-2.1-10.5,1.1c-3,3.7-7,5.8-11.3,5.8c-4.3,0-8.3-2.1-11.3-5.8
			c-2.6-3.2-7.3-3.7-10.5-1.1c-3.2,2.6-3.7,7.3-1.1,10.5c5.8,7.2,14.2,11.3,23,11.3s17.1-4.1,23-11.3
			C410.1,236.1,409.6,231.4,406.4,228.8z"/>
	</g>
</g>
<g>
	<g>
		<path class="st0" d="M350.3,184.2c-4.1,0-7.5,3.4-7.5,7.5v8.6c0,4.1,3.4,7.5,7.5,7.5s7.5-3.4,7.5-7.5v-8.6
			C357.8,187.6,354.4,184.2,350.3,184.2z"/>
	</g>
</g>
<g>
	<g>
		<path class="st0" d="M418.8,184.2c-4.1,0-7.5,3.4-7.5,7.5v8.6c0,4.1,3.4,7.5,7.5,7.5c4.1,0,7.5-3.4,7.5-7.5v-8.6
			C426.3,187.6,423,184.2,418.8,184.2z"/>
	</g>
</g>
<g>
	<g>
		<path class="st0" d="M491.1,332.5L432.4,309c-0.3-0.1-0.6-0.3-0.9-0.4c40.6-9.2,59.8-24.7,60.7-25.4c2-1.7,3-4.3,2.7-6.9
			c-0.1-0.6-8.5-60.1-8.5-118.9c0-56.1-45.6-101.8-101.8-101.8s-101.8,45.6-101.8,101.8c0,15.4-0.7,34.2-1.8,52l-16.4,8.2l-48.1-24
			c-0.1-0.1-0.3-0.1-0.4-0.2c2.3-6.7,3.8-13.7,4.3-21c10.1-3.1,17.4-12.5,17.4-23.5c0-7.4-3.3-14.1-8.6-18.7V80.3
			c0-13.8-7-26.7-18.4-34.4c-3.9-14.4-16.8-24.5-32-24.5h-68.6c-37.2,0-67.5,30.3-67.5,67.5v41.3c-5.2,4.5-8.6,11.2-8.6,18.7
			c0,11.1,7.3,20.4,17.4,23.5c1.9,25.2,14.9,47.3,34,61.5v20.7l-62,18.6C9.5,277.6,0,290.3,0,305.1v83.7c0,4.1,3.4,7.5,7.5,7.5h1.1
			v86.8c0,4.1,3.4,7.5,7.5,7.5s7.5-3.4,7.5-7.5v-86.8h27.8v86.8c0,4.1,3.4,7.5,7.5,7.5s7.5-3.4,7.5-7.5V353.8
			c0-6.6-1.9-12.9-5.6-18.4L48,316.1c-2.3-3.4-7-4.4-10.4-2.1c-3.4,2.3-4.4,7-2.1,10.4l12.8,19.2c2,3,3.1,6.5,3.1,10.1v27.6H16.1H15
			v-76.2c0-8.1,5.2-15.1,13-17.4l25.7-7.7c9,37.5,43,64.9,82.3,64.9c14.1,0,27.8-3.5,40.1-10.1c4.5,6.1,11.7,10.1,19.9,10.1h1.1v1.1
			c0,25.1,13.8,47.1,34.3,58.7v12.2c0,0.5-0.3,0.9-0.7,1l-28,9.3c-13.6,4.5-22.7,17.2-22.7,31.5v24.3c0,4.1,3.4,7.5,7.5,7.5
			s7.5-3.4,7.5-7.5v-24.3c0-7.8,5-14.8,12.4-17.3l8.2-2.7c10.9,16.2,29.2,26.1,48.9,26.1c19.8,0,38.1-9.9,48.9-26.1l8.2,2.7
			c7.4,2.5,12.4,9.4,12.4,17.3v24.3c0,4.1,3.4,7.5,7.5,7.5s7.5-3.4,7.5-7.5v-24.3c0-14.3-9.1-27-22.7-31.5l-28-9.3
			c-0.4-0.1-0.7-0.6-0.7-1v-12.2c15.3-8.7,26.9-23.2,31.8-40.5c14.2,14.8,34,23.5,55,23.5c33.2,0,62.4-21.5,72.4-52.7l28.6,11.5
			c7,2.8,11.4,9.4,11.4,16.9v35.1h-1.1h-26.8v-9.6c0-4.1-3.4-7.5-7.5-7.5s-7.5,3.4-7.5,7.5v94.3c0,4.1,3.4,7.5,7.5,7.5
			s7.5-3.4,7.5-7.5v-69.6h19.3v69.6c0,4.1,3.4,7.5,7.5,7.5s7.5-3.4,7.5-7.5v-69.6h1.1c2,0,3.9-0.8,5.3-2.2c1.4-1.4,2.2-3.3,2.2-5.3
			v-42.6C512,349.7,503.8,337.6,491.1,332.5z M297.8,157.5c0-47.8,38.9-86.8,86.8-86.8s86.8,38.9,86.8,86.8
			c0,50.4,6.1,101.3,8,116.5c-6.7,4.4-23.9,14.1-53,20.4v-11.9c4-2.3,7.8-4.8,11.4-7.7c14.8-11.9,25.2-28.6,29.4-47
			c1.4-6.1,2.1-12.5,2.1-18.8c0-42.4-30.7-48.5-60.3-54.4c-18.9-3.7-38.4-7.6-53.9-20c-2.3-1.8-5.3-2.2-7.9-0.9s-4.3,3.9-4.3,6.8
			c0,0.2-0.3,19.9-28.6,27c-4,1-26.8,6-26.8,13.2c1,4,26.4,2.4,30.4,1.4c23.7-5.9,33.3-19.2,37.2-29.2c16.3,9.6,34.5,13.3,50.9,16.5
			c31.7,6.3,48.2,10.9,48.2,39.6c0,5.2-0.6,10.4-1.7,15.5c-3.4,15.1-12,28.9-24.2,38.7c-12.5,10.1-27.6,15.4-43.7,15.4
			c-14.7,0-28.7-4.5-40.5-13c-4.3-11.9-11.3-22.7-20.5-31.6v-33.5c0-2.6-1.3-5-3.6-6.4s-5-1.5-7.3-0.3l-16.2,8.1
			C297.3,186.1,297.8,171.2,297.8,157.5z M308.5,212.4v27.1L281.3,226L308.5,212.4z M220.7,212.4l27.1,13.6l-27.1,13.6V212.4z
			 M179.9,294.6v7.1c-5.4,4.6-8.6,11.4-8.6,18.6c-10.7,6.3-22.8,9.6-35.3,9.6c-32.6,0-60.8-23-67.9-54.3l18.5-5.6
			c4.6,23.1,25,40.6,49.4,40.6c19.4,0,36.2-11,44.6-27.1C180.2,287.2,179.9,290.8,179.9,294.6z M100.7,260.3v-17.4
			c10.8,5,22.7,7.7,35.3,7.7c12.6,0,24.6-2.8,35.3-7.7v17.4c0,19.5-15.9,35.3-35.3,35.3c-19.5,0-35.3-15.8-35.3-35.2
			C100.7,260.3,100.7,260.3,100.7,260.3z M136,235.6c-38.4,0-69.6-31.2-69.6-69.6c0-4.1-3.4-7.5-7.5-7.5c-5.3,0-9.6-4.3-9.6-9.6
			s4.3-9.6,9.6-9.6h17.1c3.2,0,6.1-2.1,7.1-5.1l6.9-20.7c17.2-0.4,70.7-2.8,100.8-17.9c3.7-1.9,40.6-26,28.6-31.1
			c-1.9-3.7-31.6,15.8-35.3,17.6c-32.3,16.1-98.8,16.3-99.5,16.3c-3.2,0-6.1,2.1-7.1,5.1l-6.9,20.6H58.9c-0.4,0-0.7,0-1.1,0V88.9
			c0-28.9,23.5-52.5,52.5-52.5h68.6c9,0,16.5,6.5,17.9,15.3c0.4,2.3,1.7,4.2,3.7,5.4c8.5,4.8,13.7,13.7,13.7,23.2v43.9
			c-0.4,0-0.7,0-1.1,0h-8.6c-4.1,0-7.5,3.4-7.5,7.5s3.4,7.5,7.5,7.5h8.6c5.3,0,9.6,4.3,9.6,9.6s-4.3,9.6-9.6,9.6
			c-4.1,0-7.5,3.4-7.5,7.5C205.7,204.4,174.4,235.6,136,235.6z M186.4,260.3V234c7.5-5.5,14-12.3,19.3-19.9v19.8
			c-8.4,8.2-14.9,17.9-19.3,28.5C186.4,261.7,186.4,261,186.4,260.3z M298.5,433.8c-8.3,10.1-20.7,16.1-34,16.1
			c-13.3,0-25.7-6-34-16.1l4.8-1.6c6.6-2.2,11-8.3,11-15.2v-6c5.8,1.6,11.9,2.5,18.2,2.5s12.4-0.9,18.2-2.5v6
			c0,6.9,4.4,13.1,11,15.2L298.5,433.8z M324.6,329.9c-4.1,0-7.5,3.4-7.5,7.5v7.5c0,0.1,0,0.1,0,0.2v0.9c0,28.9-23.5,52.5-52.5,52.5
			s-52.5-23.5-52.5-52.5v-8.6c0-4.1-3.4-7.5-7.5-7.5H196c-5.3,0-9.6-4.3-9.6-9.6c0-3.4,1.8-6.5,4.8-8.3c0.7-0.4,1.3-0.9,1.8-1.5
			c18.5-0.5,78.6-4,118.1-26.6c3.6-2.1,31.6-20.1,23.2-27.9c-2.1-3.6-27.1,12.9-30.7,14.9c-34.6,19.8-89,23.7-108.7,24.5v-0.9
			c0-13.9,4.2-27.5,11.9-38.8c0.6,0.9,1.4,1.8,2.4,2.4c1.2,0.7,2.6,1.1,3.9,1.1c1.1,0,2.3-0.3,3.4-0.8l48.1-24l48.1,24
			c1.1,0.5,2.2,0.8,3.4,0.8c1.4,0,2.7-0.4,3.9-1.1c1-0.6,1.8-1.4,2.4-2.4c7.7,11.4,11.9,24.9,11.9,38.8v10.9c0,2.7,1.4,5.1,3.7,6.5
			c3,1.8,4.8,4.9,4.8,8.3c0,5.3-4.3,9.6-9.6,9.6H324.6z M384.5,372.7c-20.8,0-40-10.6-51.2-27.8c13.5-0.1,24.5-11.1,24.5-24.6
			c0-7.2-3.2-13.9-8.6-18.6v-7.1c0-3-0.2-6-0.5-9c11.1,5.2,23.3,7.9,35.8,7.9c9.1,0,18.2-1.5,26.8-4.4v11c0,10.1,6.1,19.1,15.5,22.9
			l16.2,6.5C435.2,355.1,411.5,372.7,384.5,372.7z"/>
	</g>
</g>
<g>
	<g>
		<path class="st0" d="M286.4,357.3c-3.2-2.6-7.9-2.1-10.5,1.1c-3,3.7-7,5.8-11.3,5.8c-4.3,0-8.3-2.1-11.3-5.8
			c-2.6-3.2-7.3-3.7-10.5-1.1c-3.2,2.6-3.7,7.3-1.1,10.5c5.8,7.2,14.2,11.3,23,11.3s17.1-4.1,23-11.3
			C290.1,364.6,289.6,359.9,286.4,357.3z"/>
	</g>
</g>
<g>
	<g>
		<circle class="st0" cx="239" cy="328.9" r="7.5"/>
	</g>
</g>
<g>
	<g>
		<circle class="st0" cx="290" cy="328.9" r="7.5"/>
	</g>
</g>
</svg>
