<?xml version="1.0" encoding="utf-8"?>
<!-- Generator: Adobe Illustrator 23.0.1, SVG Export Plug-In . SVG Version: 6.00 Build 0)  -->
<svg version="1.1" id="Layer_1" xmlns="http://www.w3.org/2000/svg" xmlns:xlink="http://www.w3.org/1999/xlink" x="0px" y="0px"
	 viewBox="0 0 496 496" style="enable-background:new 0 0 496 496;" xml:space="preserve">
<style type="text/css">
	.st0{fill:#FFFFFF;}
</style>
<path class="st0" d="M430.3,291.4c0.8-0.7,1.6-1.4,2.3-2.1c74.6-74.7,84.7-186.1,22.5-248.4C428.8,14.5,392.1,0,351.7,0
	c-51.6,0-104.3,23.1-144.6,63.5c-51.1,51.2-71.9,119.7-59.9,177.8l-41.9,82l-91.4,91.5c-9,9-13.9,20.9-13.9,33.6
	C0,474.6,21.3,496,47.5,496c12.7,0,24.6-5,33.6-14l91.4-91.5l81-41.6c2.4,0.5,4.9,1,7.4,1.5c-12,38.5-2.9,82.3,27.5,112.8
	c21.1,21.2,49.2,32.8,79.1,32.8h0c29.9,0,58-11.6,79.1-32.8c43.6-43.7,43.6-114.7,0-158.4C441.5,299.8,436,295.3,430.3,291.4z
	 M462.3,371.6c-7.4,2.9-15.1,4.4-23,4.4c-35.2,0-63.9-28.7-63.9-64c0-8,1.5-15.7,4.4-23.1c20.9,2.7,40.2,12.1,55.3,27.2
	C450.7,331.7,459.7,351.3,462.3,371.6z M288.4,304.7c-0.1,0-0.2,0-0.4,0c-4.5,0-8.8-0.3-13.1-0.8l8.6-8.6l7.2,7.2
	C290,303.3,289.2,304,288.4,304.7z M404.1,249.4L366.8,212l24.6-24.7l34,34.1C419.5,231.2,412.3,240.5,404.1,249.4z M355.4,128.7
	L330.8,104l24.6-24.7l24.6,24.7L355.4,128.7z M391.4,115.3L416,140l-24.6,24.7L366.8,140L391.4,115.3z M344.1,140l-24.6,24.7
	L294.9,140l24.6-24.7L344.1,140z M308.2,176l-24.6,24.7L258.9,176l24.6-24.7L308.2,176z M272.2,212l-24.6,24.7L223,212l24.6-24.7
	L272.2,212z M283.6,223.3l24.6,24.7l-24.6,24.7L258.9,248L283.6,223.3z M294.9,212l24.6-24.7l24.6,24.7l-24.6,24.7L294.9,212z
	 M330.8,176l24.6-24.7l24.6,24.7l-24.6,24.7L330.8,176z M433.3,206.6L402.7,176l24.6-24.7l18.3,18.3
	C443.2,182,439.1,194.5,433.3,206.6z M438.6,140l8.7-8.7c0.7,5.9,1,12,0.8,18.2L438.6,140z M427.3,128.7L402.7,104l23.5-23.5
	c7.9,9.4,13.7,20.2,17.3,32L427.3,128.7z M391.4,92.7L366.8,68l15.7-15.8c12.1,3.5,23,9.2,32.4,16.9L391.4,92.7z M355.4,56.7
	l-8.4-8.4c1.6-0.1,3.1-0.3,4.7-0.3c4,0,7.9,0.2,11.8,0.6L355.4,56.7z M326.8,50.6L344.1,68l-24.6,24.7l-29.8-29.8
	C301.8,57.1,314.2,53,326.8,50.6z M275.1,70.8l33.1,33.2l-24.6,24.7L247,92C255.8,83.9,265.2,76.8,275.1,70.8z M235.6,103.3
	l36.6,36.7l-24.6,24.7l-33.3-33.3C220.4,121.5,227.5,112.2,235.6,103.3z M206.5,146.1l29.8,29.9l-24.6,24.7l-17.5-17.5
	C196.6,170.5,200.8,158.1,206.5,146.1z M200.4,212l-8.1,8.1c-0.5-5.4-0.6-10.9-0.4-16.5L200.4,212z M211.7,223.3l24.6,24.7
	l-23.5,23.5c-7.7-9.4-13.3-20.4-16.8-32.5L211.7,223.3z M247.6,259.3l24.6,24.7l-16.1,16.2c-12-3.6-22.8-9.4-32.1-17.2L247.6,259.3z
	 M303.2,292.4l-8.4-8.4l24.6-24.7l17,17C324.6,279.8,313.4,285.2,303.2,292.4z M355.4,272.7L330.8,248l24.6-24.7l37.4,37.4
	c-4.5,4.1-9.2,8-14.3,11.8c-3.7-0.4-7.4-0.5-11.1-0.5C363.4,272,359.4,272.2,355.4,272.7z M69.8,470.8c-6,6-13.9,9.2-22.3,9.2
	C30.2,480,16,465.8,16,448.4c0-8.4,3.3-16.4,9.2-22.3l86.6-86.7l44.6,44.7L69.8,470.8z M169.3,374.2l-1.5-1.5l-46.2-46.2l32.2-63
	c6.8,17.9,16.9,34.4,30.8,48.4c13.3,13.3,29.2,23.5,46.8,30.4L169.3,374.2z M195.9,300.5c-55.9-56-45.8-157.3,22.5-225.8
	C255.8,37.4,304.4,16,351.7,16c36.1,0,68.8,12.9,92.1,36.2c55.9,56,45.8,157.3-22.5,225.8c-1.8,1.8-3.7,3.4-5.5,5.1
	c-5.4-2.6-10.9-4.8-16.6-6.5c3.8-3.3,7.4-6.6,10.8-9.9c62.1-62.2,72.2-153.3,22.5-203.1C412,42.9,384,32,351.7,32
	c-43.2,0-87.6,19.7-122,54.1c-30.7,30.7-49.6,69.3-53.4,108.5c-3.6,37.5,7.4,71.1,30.8,94.6c17.9,17.9,41.4,28.5,68.4,31
	c-3.3,4.8-6.2,9.8-8.7,14.9C239.1,331.1,214.7,319.3,195.9,300.5z M272.5,396.4c7.4-2.9,15.1-4.4,23-4.4c35.2,0,63.9,28.7,63.9,64
	c0,8-1.5,15.7-4.4,23.1c-20.9-2.7-40.2-12.1-55.3-27.2C284.1,436.3,275.2,416.7,272.5,396.4z M435.2,451.9
	c-17.1,17.1-39.5,26.9-63.5,27.9c2.4-7.7,3.8-15.6,3.8-23.8c0-44.1-35.8-80-79.9-80c-8.1,0-16,1.3-23.7,3.8
	c1-23.2,10.2-46,27.8-63.6v0c17.1-17.1,39.5-26.9,63.5-27.9c-2.4,7.7-3.8,15.6-3.8,23.8c0,44.1,35.8,80,79.9,80
	c8.1,0,16-1.3,23.7-3.8C462,411.4,452.8,434.2,435.2,451.9z"/>
<path class="st0" d="M98.2,386.3l16-16l11.3,11.3l-16,16L98.2,386.3z"/>
<path class="st0" d="M42.3,442.3l39.9-40l11.3,11.3l-39.9,40L42.3,442.3z"/>
</svg>
