<?xml version="1.0" encoding="utf-8"?>
<!-- Generator: Adobe Illustrator 23.0.1, SVG Export Plug-In . SVG Version: 6.00 Build 0)  -->
<svg version="1.1" id="Capa_1" xmlns="http://www.w3.org/2000/svg" xmlns:xlink="http://www.w3.org/1999/xlink" x="0px" y="0px"
	 viewBox="0 0 512 512" style="enable-background:new 0 0 512 512;" xml:space="preserve">
<style type="text/css">
	.st0{fill:#FFFFFF;}
</style>
<g>
	<path class="st0" d="M345.4,298.1c-6.7,0-12.2,5.5-12.2,12.2c0,6.7,5.5,12.2,12.2,12.2s12.2-5.5,12.2-12.2
		C357.5,303.6,352.1,298.1,345.4,298.1z"/>
	<path class="st0" d="M415.1,322.5c6.7,0,12.2-5.5,12.2-12.2c0-6.7-5.5-12.2-12.2-12.2c-6.7,0-12.2,5.5-12.2,12.2
		C403,317,408.4,322.5,415.1,322.5z"/>
	<path class="st0" d="M96.9,298.1c-6.7,0-12.2,5.5-12.2,12.2c0,6.7,5.5,12.2,12.2,12.2S109,317,109,310.3
		C109,303.6,103.6,298.1,96.9,298.1z"/>
	<path class="st0" d="M166.6,322.5c6.7,0,12.2-5.5,12.2-12.2c0-6.7-5.5-12.2-12.2-12.2c-6.7,0-12.2,5.5-12.2,12.2
		C154.5,317,159.9,322.5,166.6,322.5z"/>
	<path class="st0" d="M474.6,412c10.2-7.5,18.2-20.8,24-39.7c1.2-4,9.2-32.2,6.2-41.7c-6.3-9.9-10.9-18.7-15.2,13.9
		c-1.4,10.8-4.9,21.6-5.4,23.3c-3.8,12.4-10.5,27.7-21.1,33.7c-12.7-10.3-27.4-18.3-43.4-23.4c31-14.8,52.4-46.4,52.4-83V280
		c0-3.7-2.6-6.8-6.2-7.4c-37.2-6.4-62.9-44.1-63.1-44.5c-1.5-2.3-4.2-3.6-7-3.3c-2.8,0.3-5.1,2.1-6.2,4.6c-0.2,0.4-18.4,43-93.8,43
		c-4.1,0-7.5,3.4-7.5,7.5v15.2c0,36.6,21.4,68.2,52.4,83c-16,5-30.6,13-43.4,23.4c-5.9-3.4-11.2-9.9-15.8-19.6
		c-17.9-38-17.9-113.2-5.3-145.8c8.1-21.2,22.3-39.1,40.9-52c18.7-12.8,40.5-19.6,63.1-19.6c22.6,0,44.5,6.8,63.1,19.6
		c18.6,12.8,32.8,30.8,40.9,52c8.7,22.6,11.3,67.1,6.1,103.5c-0.6,4.1,2.3,7.9,6.4,8.5c4.1,0.6,7.9-2.3,8.5-6.4
		c5.6-39.2,2.7-85.9-7-111c-9.2-24-25.2-44.4-46.4-59c-21.2-14.6-45.9-22.3-71.6-22.3s-50.5,7.7-71.6,22.3
		c-21.2,14.6-37.2,35-46.4,59c-13.8,36-13.9,115.8,5.8,157.6c5,10.6,11,18.5,17.9,23.6c-13.2,13.5-23.5,29.9-29.9,48.1
		c-13.8-38.9-45.2-69.4-84.7-81.9c15.7-7.5,29-19.4,38.3-34.1c3.8,2,8.1,3,12.5,3c15.1,0,27.4-12.3,27.4-27.4c0-5.8-1.8-11.3-5-15.7
		c11.2-32.4,19.4-76.2,0-108.2c-10.9-18-29-29.5-50.9-32.5c-15.6-2.1-28.4,2-35.5,5.3c-10.4-12.4-22.3-19.1-47-19.1
		c-20.2,0-52.2,8-76,30.7c-3,2.9-3.1,7.6-0.3,10.6c2.9,3,7.6,3.1,10.6,0.3c20.5-19.6,48.2-26.5,65.6-26.5c23.8,0,30.6,6.8,38.9,18.1
		c2.4,3.2,6.9,4,10.2,1.8c0.1-0.1,13.4-8.7,31.3-6.2c17.4,2.4,31.6,11.4,40.1,25.4c12.6,20.9,12.7,52.1,0.3,90.6
		c-2.6-1-5.3-1.6-8.2-1.8V280c0-3.7-2.6-6.8-6.2-7.4c-37.2-6.4-62.9-44.1-63.1-44.5c-1.5-2.3-4.2-3.6-7-3.3
		c-2.8,0.3-5.1,2.1-6.2,4.6c-0.2,0.4-18.4,43-93.8,43c-4.1,0-7.5,3.4-7.5,7.5v12.5c-3.1,0.2-6.1,0.9-8.8,2
		c-12-31.7-12.6-59-1.7-81.4c0.9-1.8,12.8-19.9,19.2-25.1c30-24.5-2.3-6.7-4.2-7.6c-3.7-1.8-6-11-28.5,26.2
		c-13.3,27.4-12.2,60.3,3,97.9c-3,4.4-4.7,9.7-4.7,15.3c0,15.1,12.3,27.4,27.4,27.4c4.4,0,8.7-1.1,12.5-3
		c9.3,14.7,22.5,26.5,38.3,34.1C38.8,395,0,445,0,503.9v0.3c0,4.1,3.4,7.5,7.5,7.5H256h248.5c4.1,0,7.5-3.4,7.5-7.5v-0.3
		C512,468.2,497.7,435.8,474.6,412z M380.2,387.2c7.5,0,14.9,0.7,22,2.1c-3.7,8.6-12.3,14.4-22,14.4c-9.7,0-18.3-5.9-22-14.4
		C365.4,387.9,372.7,387.2,380.2,387.2z M303.3,295.2v-7.8c56.9-2,83.4-27.1,94.1-41.8c10.3,12.3,31.5,33.3,59.8,40.5v9.1
		c0,42.4-34.5,76.9-76.9,76.9S303.3,337.6,303.3,295.2z M131.8,387.2c7.5,0,14.9,0.7,22,2.1c-3.7,8.6-12.3,14.4-22,14.4
		s-18.3-5.9-22-14.4C116.9,387.9,124.2,387.2,131.8,387.2z M222.1,332.2c-1.9,0-3.8-0.5-5.5-1.3c3.1-7.3,5.3-15.2,6.4-23.3
		c6.4,0.4,11.5,5.8,11.5,12.3C234.4,326.6,228.9,332.2,222.1,332.2z M41.4,332.2c-6.8,0-12.4-5.5-12.4-12.4
		c0-6.5,5.1-11.9,11.5-12.3c1.1,8.2,3.3,16,6.4,23.3C45.3,331.7,43.4,332.2,41.4,332.2z M55,300.3C55,300.3,55,300.2,55,300.3
		c-0.1-1.7-0.2-3.4-0.2-5.1v-7.8c56.9-2,83.4-27.1,94.1-41.8c10.3,12.3,31.5,33.3,59.8,40.5v9.1c0,1.7-0.1,3.4-0.2,5
		c0,0,0,0.1,0,0.1c-2.6,40.1-36,71.8-76.7,71.8S57.6,340.4,55,300.3z M15.2,496.7c3-48.4,35.6-88.9,79.9-103.6
		c5.5,15.1,20,25.6,36.7,25.6c16.6,0,31.1-10.6,36.7-25.6c44.3,14.7,76.9,55.2,79.9,103.6H15.2z M263.7,496.7
		c3-48.4,35.6-88.9,79.9-103.6c5.5,15.1,20,25.6,36.7,25.6c16.6,0,31.1-10.6,36.7-25.6c44.3,14.7,76.9,55.2,79.9,103.6H263.7z"/>
	<path class="st0" d="M206.3,112.1c3-2.8,3.2-7.6,0.4-10.6c-17.1-18.3-24.5-36.5-22.1-54.2c3.7-26.8,22.9-31.2,31-31.9
		c15.3-1.3,29.7,6.5,33.3,18.2c1,3.1,3.9,5.3,7.2,5.3s6.2-2.1,7.2-5.3c3.6-11.6,18-19.5,33.3-18.2c8.1,0.7,27.3,5.2,31,31.9
		c6.3,46.1-56.2,82.9-71.4,91c-5.2-2.8-16.1-9-27.9-17.9c-1.6-1.2-14.9-11.9-22.6-20.3c-13.9-15.1-15.9-10.5-15.1,3.4
		c-2.5,3.3,25.3,26.3,28.6,28.8c17.5,13.2,33,20.8,33.7,21.1c2.1,1,4.5,1,6.6,0c0.9-0.4,22.8-11.2,44-29.5
		c29.1-25.1,42.6-52.3,39-78.8c-4.2-30.6-25.8-43.2-44.6-44.8C281-0.9,265.3,5.4,256,16.3c-9.3-10.9-25-17.2-41.7-15.8
		c-18.8,1.6-40.4,14.2-44.6,44.8c-3.1,22.4,5.7,44.7,26,66.5C198.6,114.8,203.3,115,206.3,112.1z"/>
</g>
</svg>
