<?xml version="1.0" encoding="utf-8"?>
<!-- Generator: Adobe Illustrator 23.0.1, SVG Export Plug-In . SVG Version: 6.00 Build 0)  -->
<svg version="1.1" id="Capa_1" xmlns="http://www.w3.org/2000/svg" xmlns:xlink="http://www.w3.org/1999/xlink" x="0px" y="0px"
	 viewBox="0 0 512 512" style="enable-background:new 0 0 512 512;" xml:space="preserve">
<style type="text/css">
	.st0{fill:#FFFFFF;}
</style>
<g>
	<path class="st0" d="M382.3,148.4c0.1,0,0.1,0,0.2,0c0.1,0,0.1,0,0.2,0l63.3-1.1c5.4-0.1,9.7-4.4,9.8-9.8l1.1-63.3
		c0-0.1,0-0.2,0-0.4C456.4,50.4,437,31,413.7,30.6c-19.9-0.3-36.2,15.5-38,36.6c-20.7,1.8-36.9,18.5-36.6,38
		C339.5,128.6,358.9,148,382.3,148.4z M378.6,87l0.5,0c4.5-0.1,8.7-0.3,12.3-3.9c3.6-3.6,3.8-8,4-12.3l0-0.6
		c0.3-9.5,7.1-19.6,17.5-19.6c0.1,0,0.2,0,0.3,0c12.5,0.2,23.2,10.9,23.5,23.4l-1,53.5l-53.5,1c-12.7-0.3-23.2-10.8-23.4-23.6
		C358.9,94.3,369.1,87.3,378.6,87L378.6,87z"/>
	<path class="st0" d="M100.8,59.9c1.3,4.3,5.3,7.1,9.6,7.1c1,0,1.9-0.1,2.9-0.4c5.3-1.6,8.3-7.2,6.7-12.5l-9.4-31.4
		c-1.6-5.3-7.2-8.3-12.4-6.7c-5.3,1.6-8.3,7.2-6.7,12.5L100.8,59.9z"/>
	<path class="st0" d="M41.3,93.2c3.4,0,6.7-1.7,8.6-4.8c2.8-4.7,1.3-10.9-3.4-13.7L17.2,57c-4.7-2.8-10.9-1.3-13.7,3.4
		c-2.8,4.7-1.3,10.9,3.4,13.7l29.3,17.6C37.7,92.8,39.5,93.2,41.3,93.2z"/>
	<path class="st0" d="M178.1,49.9c1.4,0.7,2.9,1,4.3,1c3.7,0,7.3-2.1,9-5.7l14.7-30.8c2.4-5,0.3-11-4.7-13.3c-5-2.4-11-0.3-13.3,4.7
		l-14.7,30.8C171,41.5,173.1,47.5,178.1,49.9z"/>
	<path class="st0" d="M484.5,417.1c3.9-8,7.2-16.4,9.7-24.9c14.3-47.8,6.6-98.9-21.3-140.3c-4.9-7.3-17.6-6.1-19.3,7.3
		c26.7,37.1,34.4,83.7,21.4,127.3c-1.5,4.9-3.2,9.8-5.2,14.5c-4.3-9.6-12.1-17-21.4-20.6c0.2-0.6,0.4-1.2,0.6-1.8
		c18.8-62.6-16.9-128.8-79.4-147.6c-17.9-5.4-36.8-6.4-55.1-3.1c-7.9-7.9-16.6-15.1-26-21.3c28.6-9.8,59.5-10.5,88.9-1.6
		c3.2,0.9,25.4,9.3,44.6,24.2c11.7,9.1,25.7,23.9,31.7,30.2c5.4,5.8,3.2,3.4,4.7,3.2c3.5-1.2,17.4-3.8,13.3-12
		c-4.2-8.4-21.6-27-35.1-37c-16.5-12.3-34.2-20.7-37.8-22.2c-5.2-2.1-10.4-4-15.7-5.5c-38.9-11.7-80.3-8.8-117.1,8.2
		c-23.4-10.8-48.6-16-73.9-15.2l18.2-48.7c1.4-3.7,0.5-7.8-2.3-10.5l-37-37.4c-2.6-2.6-6.4-3.6-10-2.5l-86.4,25.9l-11.5,57.5
		c-0.8,3.8,0.8,7.7,3.9,10l42,30.6c-24.4,15.1-44.5,36.4-58.4,62.3c-21,39-25.5,83.8-12.8,126.3c1,3.5,2.2,7,3.5,10.4
		c-0.4,0.4-0.9,0.8-1.3,1.3c-16.2,16.8-16.2,44.2,0,61.1c0.1,0.1,0.2,0.2,0.3,0.3l45.6,44c1.9,1.9,4.4,2.8,6.9,2.8s5-0.9,6.9-2.8
		l19-18.3c24.1,12.8,51,19.4,78,19.4c16,0,32-2.3,47.5-7c7.5-2.3,14.8-5,21.8-8.2c7,3.2,14.2,6,21.7,8.2c15.6,4.7,31.7,7,47.7,7
		c24,0,47.8-5.2,70-15.6l61,1.1c0.1,0,0.1,0,0.2,0c0.1,0,0.1,0,0.2,0c23.4-0.4,42.8-19.8,43.2-43.2
		C510.3,436.7,499.6,422.8,484.5,417.1L484.5,417.1z M92,121.2l69.1-20.8l21.1,21.3l-96,28.8L92,121.2z M95.2,168.7l89.4-26.8
		l-14.6,39c-7,1.2-14.1,2.8-21,4.9c-6.9,2.1-13.7,4.6-20.2,7.5L95.2,168.7z M68.3,275.4c14.5-27,36.7-48.3,63.7-61.6
		c0.1,0,0.2-0.1,0.3-0.1c7.2-3.5,14.7-6.5,22.5-8.8c37.3-11.2,76.7-7.2,111,11.2c34.3,18.5,59.3,49.2,70.5,86.5
		c14.2,47.2,3.2,98.9-28.6,136.4c-0.2,0-0.3-0.1-0.5-0.1c-9.2-2.8-17.7-6.8-25.4-11.8c29.7-30.6,40.9-75.1,28.5-116.7
		c-9.1-30.3-29.5-55.3-57.3-70.3c-27.9-15-59.9-18.3-90.2-9.2c-30.3,9.1-55.3,29.5-70.3,57.4c-15,27.9-18.3,59.9-9.1,90.3
		c2.5,8.4,5.9,16.4,10.1,23.9c-0.1,0.1-0.3,0.2-0.4,0.3c-9.7-8.1-22.1-11.2-33.4-9.2c-0.9-2.4-1.7-4.8-2.4-7.2
		C45.8,349.1,49.8,309.7,68.3,275.4L68.3,275.4z M266.1,414.5c-24.9-24.8-35.8-62.3-25-98.3c4.8-15.9,13.3-30.1,25-41.6
		c11.5,11.4,20.1,25.6,24.9,41.6C301.5,351.3,291.7,389,266.1,414.5L266.1,414.5z M202.1,442.9c-15.1,0.8-30.4-1.8-44.4-7.9
		c0.2-11.3-3.9-22.6-12.2-31.2c-8.9-9.2-21.9-12.5-34.2-10c-3.8-6.6-6.8-13.6-9.1-21c-7.6-25.2-4.9-51.9,7.6-75
		c12.5-23.2,33.2-40.1,58.4-47.7c11.1-3.3,22.5-4.7,33.7-4.1c-11.3,15.2-19.8,32.3-25.3,50.8C161.1,348.7,172.3,402.3,202.1,442.9
		L202.1,442.9z M92.8,488.1l-38.5-37.1c-8.7-9.2-8.7-24,0.1-33.2c7.4-7.6,19.5-5.3,26.4,1.2l0.4,0.4c3.1,2.9,6.4,6,11.5,6
		c5.1,0,8.3-3,11.5-6l0.4-0.4c7-6.5,19.1-8.9,26.4-1.2c8.8,9.1,8.9,24,0.1,33.2L92.8,488.1z M238.5,484.2
		c-34.7,10.4-72.1,7.4-104.5-8l11.3-10.9c0.1-0.1,0.2-0.2,0.2-0.2c3-3.1,5.4-6.6,7.3-10.3c14,5.6,28.8,8.4,43.8,8.4
		c7,0,14.1-0.6,21-1.9c7.8,7.9,16.5,15.1,25.9,21.3C241.9,483.1,240.2,483.7,238.5,484.2L238.5,484.2z M293.6,484.2
		c-77-23.1-120.8-104.6-97.7-181.6c5.9-19.6,15.5-37.3,28.6-52.6c6.5,1.9,12.8,4.5,18.8,7.8c2.4,1.3,4.8,2.7,7.1,4.2
		c-13.2,13.6-22.9,30.1-28.5,48.5c-18.8,62.6,16.9,128.8,79.4,147.6c11.2,3.4,22.6,5,34,5c19.9,0,39.7-5,57.3-14.8l0.5,30.1
		C361.7,492,326.6,494.1,293.6,484.2z M392.2,421.2c0,0.1,0,0.2,0,0.4l0.1,3.4C374,437.9,352,444.1,330,442.9
		c13.1-17.8,22.6-38.2,27.8-59.7c6.8-28.4,6-58.2-2.5-86.3c-5.6-18.5-14.1-35.6-25.3-50.8c11.3-0.6,22.7,0.7,33.7,4
		c52,15.6,81.6,70.7,66,122.7c-0.6,2-1.3,4-2,6C407.9,382.8,392.6,400.4,392.2,421.2L392.2,421.2z M466.6,475.9l-53.5-1l-1-53.5
		c0.3-12.5,11.1-23.2,23.6-23.4c0.1,0,0.2,0,0.3,0c10.4,0,17.2,10.1,17.5,19.6l0,0.5c0.1,4.3,0.3,8.8,3.9,12.4
		c3.6,3.6,8.1,3.8,12.4,3.9l0.5,0c9.6,0.3,19.8,7.2,19.6,17.8C489.8,465,479.3,475.5,466.6,475.9z"/>
</g>
</svg>
