<svg height="480pt" viewBox="0 0 480 480.02876" width="480pt" xmlns="http://www.w3.org/2000/svg"><path d="m234.695312 479.988281-.007812.007813h.015625zm0 0"/><path d="m479.496094 224.1875c-.378906-5.769531-1.007813-11.503906-1.800782-17.214844-3.488281-25.433594-11.050781-50.136718-22.402343-73.160156-2.3125-4.691406-4.785157-9.300781-7.414063-13.832031-3.402344-5.914063-7.054687-11.625-11.199218-17.457031-23.007813-32.917969-53.902344-59.542969-89.855469-77.441407-42.847657-21.3125-91.089844-29.308593-138.523438-22.96875-73.753906 9.945313-138.765625 53.429688-176.125 117.792969-.632812 1.089844-1.167969 2.214844-1.777343 3.3125-1.023438 1.847656-2.070313 3.679688-3.054688 5.550781-.140625.214844-.269531.433594-.386719.65625-.351562.679688-.648437 1.386719-1 2.066407-1.054687 2.09375-2.054687 4.214843-3.054687 6.335937-1.160156 2.460937-2.296875 4.933594-3.367188 7.4375-.90625 2.097656-1.761718 4.21875-2.601562 6.335937-1 2.53125-1.957032 5.066407-2.863282 7.617188-.789062 2.214844-1.546874 4.4375-2.273437 6.671875-.796875 2.488281-1.550781 4.984375-2.269531 7.496094-.679688 2.351562-1.34375 4.703125-1.945313 7.082031-.601562 2.375-1.175781 4.917969-1.726562 7.390625-.554688 2.472656-1.089844 4.863281-1.554688 7.3125-.460937 2.445313-.855469 5.070313-1.253906 7.613281-.367187 2.402344-.800781 4.800782-1.082031 7.203125-.359375 2.863281-.589844 5.734375-.847656 8.605469-.191407 2.105469-.4375 4.199219-.574219 6.3125-.316407 4.726562-.4921878 9.441406-.527344 14.144531v.863281.375c0 4.609376.175781 9.1875.4375 13.730469.066406.992188.152344 1.984375.226563 2.976563.28125 3.917968.652343 7.816406 1.109374 11.6875.050782.390625.066407.800781.113282 1.175781.078125.625.191406 1.238281.28125 1.863281.335937 2.535156.695312 5.0625 1.109375 7.578125.265625 1.597657.5625 3.199219.855469 4.796875.378906 1.976563.746093 3.953125 1.160156 5.921875.488281 2.3125 1.042968 4.605469 1.601562 6.894531.304688 1.234376.585938 2.464844.902344 3.6875.875 3.378907 1.832031 6.722657 2.851562 10.035157l.125.445312c22.140626 71.042969 75.921876 127.832031 145.65625 153.800781l1.160157.417969c3.199219 1.160157 6.402343 2.257813 9.601562 3.292969.582031.191406 1.183594.367188 1.773438.554688 3.089843.957031 6.203125 1.859374 9.347656 2.703124l1.910156.496094c3.199219.816406 6.398438 1.570313 9.601563 2.261719l1.6875.351563c3.429687.710937 6.894531 1.347656 10.398437 1.90625l.984375.167968c9.636719 1.511719 19.355469 2.433594 29.105469 2.769532v.191406h3.023437v-.121094h.375v.121094-.113282.113282-.105469.105469-.105469h.046876v.105469-.105469c1.335937 0 2.671874.097656 4 .097656h.554687c.28125.054688.570313.054688.855469 0h.289062c2.742188 0 5.40625-.105469 7.933594-.25 128.890625-4.878906 230.875-110.761719 230.921875-239.742187 0-5.292969-.175781-10.5625-.519531-15.808594zm-119.714844 204.984375c-31.867188 20.261719-68.386719 32.046875-106.085938 34.230469 35.183594-70.613282 33.527344-153.984375-4.433593-223.144532 17.25-28.523437 40.640625-52.847656 68.472656-71.199218 42.335937 42.066406 66.1875 99.253906 66.28125 158.9375.132813 35.175781-8.179687 69.875-24.234375 101.175781zm-334.238281-124.640625c-.550781-1.839844-1.046875-3.703125-1.5625-5.601562 60.511719 65.6875 152.609375 92.136718 238.753906 68.5625-1.710937 33.761718-11.039063 66.699218-27.289063 96.34375-96.480468-2.121094-180.816406-65.660157-209.464843-157.816407-.148438-.496093-.285157-.992187-.4375-1.488281zm-9.527344-65.425781c0-4.398438.144531-8.785157.429687-13.160157.121094-1.941406.351563-3.871093.519532-5.804687.242187-2.699219.464844-5.402344.800781-8.089844.28125-2.222656.648437-4.433593.992187-6.648437.375-2.398438.738282-4.800782 1.183594-7.160156.425782-2.253907.921875-4.480469 1.417969-6.71875.496094-2.242188 1.039063-4.6875 1.597656-7.007813.554688-2.167969 1.152344-4.320313 1.769531-6.464844.6875-2.398437 1.398438-4.800781 2.160157-7.144531.65625-2.023438 1.34375-4 2.046875-6.046875.878906-2.464844 1.800781-4.90625 2.769531-7.34375.742187-1.878906 1.496094-3.769531 2.289063-5.601563 1.046874-2.457031 2.167968-4.878906 3.300781-7.296874.753906-1.597657 1.488281-3.199219 2.273437-4.734376 21.050782 32.015626 49.457032 58.523438 82.847656 77.3125 34.484376 19.394532 73.242188 29.925782 112.800782 30.648438 17.40625 31.605469 26.90625 66.957031 27.695312 103.03125-91.523437 26.988281-190.085937-7.160156-245.296875-84.984375-.398437-3.386719-.722656-6.777344-.976562-10.167969-.054688-.878906-.140625-1.769531-.199219-2.65625-.261719-4.273437-.421875-8.558594-.421875-12.792968v-.277344c0-.320313 0-.609375 0-.890625zm407.597656-127.382813c1.121094 1.601563 2.128907 3.152344 3.199219 4.726563-79.128906 4.554687-150.964844 47.722656-192.125 115.457031-33.769531-.800781-66.914062-9.25-96.945312-24.710938 28.582031-94.457031 115.585937-159.097656 214.273437-159.199218 1.144531 0 2.261719.046875 3.390625.085937 26.945312 16.210938 50.1875 37.890625 68.230469 63.640625zm-96.800781-78.246094c-94.621094 10.070313-174.367188 75.070313-203.308594 165.71875-30.671875-18.679687-56.414062-44.4375-75.074218-75.121093.914062-1.511719 1.855468-3.015625 2.808593-4.503907 1.28125-2 2.550781-4 3.886719-5.96875 1.433594-2.085937 2.9375-4.117187 4.433594-6.152343 1.390625-1.894531 2.777344-3.796875 4.230468-5.644531 1.601563-1.984376 3.203126-3.90625 4.800782-5.832032 1.496094-1.777344 2.984375-3.570312 4.535156-5.296875 1.699219-1.890625 3.457031-3.703125 5.21875-5.527343 1.597656-1.664063 3.199219-3.335938 4.796875-4.9375 1.824219-1.785157 3.714844-3.488282 5.601563-5.199219 1.679687-1.527344 3.335937-3.089844 5.054687-4.570313 1.9375-1.664062 3.945313-3.246094 5.9375-4.847656 1.761719-1.40625 3.488281-2.839844 5.28125-4.191406 2.046875-1.542969 4.160156-3 6.253906-4.472656 1.832031-1.277344 3.640625-2.597657 5.511719-3.832032 2.144531-1.414062 4.359375-2.726562 6.554688-4.070312 1.894531-1.152344 3.765624-2.351563 5.703124-3.457032 2.246094-1.28125 4.558594-2.464843 6.855469-3.671874 1.953125-1.023438 3.871094-2.085938 5.855469-3.054688 2.398438-1.152344 4.800781-2.191406 7.199219-3.265625 1.976562-.886719 3.9375-1.816406 5.9375-2.648437 2.472656-1.015626 4.984375-1.902344 7.488281-2.832032 2.007812-.75 4-1.550781 6.023438-2.238281 2.558593-.863281 5.167968-1.601563 7.761718-2.402344 2.023438-.605469 4-1.269531 6.070313-1.820312 2.679687-.722657 5.398437-1.296875 8.113281-1.921875 2.007812-.457032 4-.984375 6.007812-1.390625 2.863282-.570313 5.765626-.992188 8.664063-1.457031 1.902344-.304688 3.789063-.679688 5.703125-.9375 3.253906-.429688 6.550781-.703126 9.832031-.992188 1.597657-.132812 3.152344-.359375 4.742188-.460938 4.875-.320312 9.78125-.480468 14.722656-.480468 29.8125-.082032 59.332031 5.863281 86.789063 17.480468zm58.617188 376.796876c31.6875-86.648438 10.847656-183.792969-53.597657-249.816407 30.460938-16.949219 64.4375-26.601562 99.261719-28.191406 1.710938-.0625 3.425781-.144531 5.152344-.175781 51.238281 93.039062 29.996094 209.28125-50.839844 278.183594zm0 0"/></svg>