<?xml version="1.0" encoding="utf-8"?>
<!-- Generator: Adobe Illustrator 23.0.1, SVG Export Plug-In . SVG Version: 6.00 Build 0)  -->
<svg version="1.1" id="Layer_1" xmlns="http://www.w3.org/2000/svg" xmlns:xlink="http://www.w3.org/1999/xlink" x="0px" y="0px"
	 viewBox="0 0 512 512" style="enable-background:new 0 0 512 512;" xml:space="preserve">
<path d="M463.3,22H126.2c-69.1,0-7.6,3.4-7.6,7.6s17.7,7.6,7.6,7.6h337.1c18.5,0,33.5,15,33.5,33.5v270.6c0,18.5-15,33.5-33.5,33.5
	H48.7c-18.5,0-33.5-15-33.5-33.5V70.7c0-18.5,15-33.5,33.5-33.5h47.1c4.2,0,59.8,2.7,52.5-7.7C142.6,21.2,100,22,95.8,22H48.7
	C21.9,22,0,43.9,0,70.7v270.6C0,368.2,21.9,390,48.7,390H171l-14.9,48.7h-27.9c-14.3,0-25.9,11.6-25.9,25.9
	c0,14.3,11.6,25.9,25.9,25.9h255.7c14.3,0,25.9-11.6,25.9-25.9c0-14.3-11.6-25.9-25.9-25.9h-27.9L341,390h122.3
	c26.9,0,48.7-21.9,48.7-48.7V70.7C512,43.9,490.1,22,463.3,22z M394.5,464.5c0,5.9-4.8,10.6-10.6,10.6H128.2
	c-5.9,0-10.6-4.8-10.6-10.6c0-5.9,4.8-10.6,10.6-10.6h255.7C389.7,453.9,394.5,458.7,394.5,464.5z M340,438.7H172l14.9-48.7h138.2
	L340,438.7z"/>
<path d="M463.7,315.5c4.2,0,7.8-49.4,7.8-53.6V70.7c0-4.5-3.7-8.2-8.2-8.2H48.7c-4.5,0-8.1,3.7-8.1,8.2v247.8c0,4.2,3.4,7.6,7.6,7.6
	h415.7c4.2,0,7.6-3.4,7.6-7.6v-26.2c1-47.3-3.3-74.3-7.5-74.3c-4.2,0-9.5,23.4-7.7,74.3v18.6H55.8V77.8h400.5v184.2
	C456.2,266.1,459.5,315.5,463.7,315.5z"/>
<path d="M262.3,344.9c-1.7-2.5-4.8-3.8-7.8-3.2c-3.2,0.6-5.8,3.4-6.1,6.7c-0.7,6.9,7.8,11,12.8,6.2
	C263.9,352.1,264.3,347.9,262.3,344.9z"/>
</svg>
