<?xml version="1.0" encoding="utf-8"?>
<!-- Generator: Adobe Illustrator 23.0.1, SVG Export Plug-In . SVG Version: 6.00 Build 0)  -->
<svg version="1.1" id="Layer_1" xmlns="http://www.w3.org/2000/svg" xmlns:xlink="http://www.w3.org/1999/xlink" x="0px" y="0px"
	 viewBox="0 0 30 30" style="enable-background:new 0 0 30 30;" xml:space="preserve">
<style type="text/css">
	.st0{fill:none;stroke:#20499A;stroke-miterlimit:10;}
	.st1{fill:#20499A;}
</style>
<g id="Group_26" transform="translate(-1403 -8479)">
	<g id="Ellipse_3" transform="translate(1403 8479)">
		<circle class="st0" cx="15" cy="15" r="14.5"/>
	</g>
	<path id="twitter" class="st1" d="M1424.2,8491.3c0,0.1,0,0.3,0,0.4c0,4.8-3.8,8.7-8.6,8.8c0,0-0.1,0-0.1,0c-1.7,0-3.3-0.5-4.7-1.4
		c0.2,0,0.5,0,0.7,0c1.4,0,2.7-0.5,3.8-1.3c-1.3,0-2.5-0.9-2.9-2.1c0.2,0,0.4,0.1,0.6,0.1c0.3,0,0.5,0,0.8-0.1
		c-1.4-0.3-2.5-1.6-2.5-3v0c0.4,0.2,0.9,0.4,1.4,0.4c-1.4-0.9-1.8-2.7-1-4.1c1.6,1.9,3.9,3.1,6.3,3.2c-0.1-0.2-0.1-0.5-0.1-0.7
		c0-1.7,1.4-3.1,3.1-3.1c0.8,0,1.7,0.4,2.2,1c0.7-0.1,1.3-0.4,2-0.7c-0.2,0.7-0.7,1.3-1.4,1.7c0.6-0.1,1.2-0.2,1.8-0.5
		C1425.3,8490.3,1424.8,8490.9,1424.2,8491.3L1424.2,8491.3z"/>
</g>
</svg>
