<svg xmlns="http://www.w3.org/2000/svg" width="30" height="30" viewBox="0 0 30 30">
  <g id="Group_26" data-name="Group 26" transform="translate(-1403 -8479)">
    <g id="Ellipse_3" data-name="Ellipse 3" transform="translate(1403 8479)" fill="#f0f1f2" stroke="#292929" stroke-width="1">
      <circle cx="15" cy="15" r="15" stroke="none"/>
      <circle cx="15" cy="15" r="14.5" fill="none"/>
    </g>
    <path id="twitter" d="M14.745,7.073c.007.132.009.266.009.4A8.7,8.7,0,0,1,6,16.228a8.7,8.7,0,0,1-4.718-1.383,6.248,6.248,0,0,0,.734.043,6.176,6.176,0,0,0,3.822-1.317,3.081,3.081,0,0,1-2.875-2.137,3.136,3.136,0,0,0,.579.054,3.079,3.079,0,0,0,.811-.107A3.081,3.081,0,0,1,1.883,8.362V8.324a3.068,3.068,0,0,0,1.394.386A3.08,3.08,0,0,1,2.325,4.6,8.736,8.736,0,0,0,8.668,7.816a3.118,3.118,0,0,1-.079-.7,3.079,3.079,0,0,1,5.323-2.1,6.189,6.189,0,0,0,1.954-.747,3.088,3.088,0,0,1-1.353,1.7,6.165,6.165,0,0,0,1.767-.484,6.226,6.226,0,0,1-1.536,1.592Z" transform="translate(1409.432 8484.212)" fill="#292929"/>
  </g>
</svg>
