<?xml version="1.0" encoding="utf-8"?>
<!-- Generator: Adobe Illustrator 23.0.1, SVG Export Plug-In . SVG Version: 6.00 Build 0)  -->
<svg version="1.1" id="Layer_1" xmlns="http://www.w3.org/2000/svg" xmlns:xlink="http://www.w3.org/1999/xlink" x="0px" y="0px"
	 viewBox="0 0 512 512" style="enable-background:new 0 0 512 512;" xml:space="preserve">
<path d="M42.4,205.4c-2.7,0-5.2-1.1-7.1-2.9L5.5,172.7c-3.6-3.6-5.6-8.4-5.5-13.5c0.1-5.1,2.1-9.8,5.8-13.3
	C73.6,81.5,162.4,46,256,46s182.4,35.5,250.2,99.9c3.7,3.5,5.7,8.2,5.8,13.3c0.1,5.1-1.9,9.9-5.5,13.5l-23.8,23.7
	c-7.2,7.2-18.7,7.4-26.1,0.3C402.2,145.3,330.9,117,256,117c-78,0-151.4,30.4-206.5,85.5C47.6,204.4,45,205.4,42.4,205.4z
	 M20.6,159.5l21.9,21.9C100.6,126.9,176,97,256,97c79.7,0,155.4,30,213.5,84.4l22-21.9C427.5,99.2,344,66,256,66
	S84.5,99.2,20.6,159.5z"/>
<path d="M397.3,274.1c-4.5,0-9-1.6-12.6-4.9c-27-24.9-60.4-41.3-96.5-47.5c-5.4-0.9-9.1-6.1-8.2-11.5c0.9-5.4,6-10,11.5-9.1
	c39.5,6.7,76,25.5,105.8,52.5l22-21.9C374.6,190.6,316.7,168,256,168c-60.7,0-118.6,22.6-163.2,63.6l22,21.9
	c26-23.7,57.8-40.5,91.8-48.7c78.7-15.8,103.7-0.1,118.1,14.4c2.2,2.2,3.6,9.6-32.8,3.1c-17.9-3.2-44.3-3.9-80.6,1.9
	c-31.2,7.5-60.2,23-83.9,44.9c-7.4,6.8-18.8,6.6-25.9-0.6l-23.8-23.7c-3.6-3.6-5.6-8.4-5.5-13.6c0.1-5.1,2.3-10,6-13.4
	C126.7,172.8,189.8,148,256,148s129.3,24.8,177.8,69.9c3.7,3.5,5.9,8.3,6,13.4c0.1,5.1-1.9,9.9-5.5,13.6l-23.8,23.7
	C406.9,272.3,402.1,274.1,397.3,274.1z"/>
<path d="M325.1,346.4c-4.3,0-8.6-1.5-12.2-4.5C297,328.4,276.8,321,256,321s-41,7.4-56.9,20.9c-7.5,6.4-18.4,6-25.3-1l-23.9-23.8
	c-3.6-3.6-5.6-8.7-5.5-13.9c0.2-5.1,2.4-10,6.3-13.4C179.8,264.2,217.2,250,256,250s76.2,14.1,105.3,39.8c3.8,3.4,6.1,8.3,6.3,13.4
	c0.2,5.2-1.8,10.2-5.5,13.9l-23.9,23.8C334.6,344.6,329.8,346.4,325.1,346.4z M256,301c25.2,0,49.6,8.8,69,24.9l22-22
	C321.7,282,289.5,270,256,270c-33.5,0-65.7,12-91,33.9l22,22C206.4,309.8,230.8,301,256,301z"/>
<path d="M256.1,466c-31.4,0-57-25.6-57-57c0-15.2,5.9-29.5,16.7-40.3c10.8-10.8,25.1-16.7,40.3-16.7c15.2,0,29.5,5.9,40.3,16.7
	c10.8,10.8,16.7,25.1,16.7,40.3C313.1,440.4,287.5,466,256.1,466z M256.1,372c-9.9,0-19.2,3.8-26.2,10.8c-7,7-10.8,16.3-10.8,26.2
	c0,20.4,16.6,37,37,37s37-16.6,37-37c0-9.9-3.9-19.2-10.8-26.2C275.2,375.9,265.9,372,256.1,372z"/>
</svg>
